<mxfile host="app.diagrams.net" modified="2023-07-08T03:33:43.840Z" agent="Mozilla/5.0 (Macintosh; Intel Mac OS X 10_15_7) AppleWebKit/537.36 (KHTML, like Gecko) Chrome/114.0.0.0 Safari/537.36" etag="60YK9XKGNTPTsKetJHKM" version="21.6.1" type="device">
  <diagram name="Page-1" id="_DLyH1PSAWgRE51byqSm">
    <mxGraphModel dx="5734" dy="3068" grid="1" gridSize="10" guides="1" tooltips="1" connect="1" arrows="1" fold="1" page="1" pageScale="1" pageWidth="850" pageHeight="1100" math="0" shadow="0">
      <root>
        <mxCell id="0" />
        <mxCell id="1" parent="0" />
        <mxCell id="p7uoksNzp9pEg4KGuEPH-25" value="" style="group" vertex="1" connectable="0" parent="1">
          <mxGeometry x="590" y="50" width="490" height="570" as="geometry" />
        </mxCell>
        <mxCell id="p7uoksNzp9pEg4KGuEPH-1" value="" style="ellipse;whiteSpace=wrap;html=1;aspect=fixed;" vertex="1" parent="p7uoksNzp9pEg4KGuEPH-25">
          <mxGeometry x="-70" y="-25" width="570" height="570" as="geometry" />
        </mxCell>
        <mxCell id="p7uoksNzp9pEg4KGuEPH-21" value="&lt;font style=&quot;font-size: 30px;&quot;&gt;Root hash&lt;/font&gt;" style="rounded=0;whiteSpace=wrap;html=1;fontStyle=1;fillColor=#f8cecc;strokeColor=#b85450;fontSize=30;" vertex="1" parent="p7uoksNzp9pEg4KGuEPH-25">
          <mxGeometry x="142.5" y="90" width="145" height="100" as="geometry" />
        </mxCell>
        <mxCell id="p7uoksNzp9pEg4KGuEPH-22" value="" style="group" vertex="1" connectable="0" parent="p7uoksNzp9pEg4KGuEPH-25">
          <mxGeometry x="-50" y="230" width="530" height="60" as="geometry" />
        </mxCell>
        <mxCell id="p7uoksNzp9pEg4KGuEPH-3" value="0" style="rounded=0;whiteSpace=wrap;html=1;fontStyle=0;verticalAlign=top;" vertex="1" parent="p7uoksNzp9pEg4KGuEPH-22">
          <mxGeometry width="27.196495619524406" height="60" as="geometry" />
        </mxCell>
        <mxCell id="p7uoksNzp9pEg4KGuEPH-5" value="1" style="rounded=0;whiteSpace=wrap;html=1;fontStyle=0;verticalAlign=top;" vertex="1" parent="p7uoksNzp9pEg4KGuEPH-22">
          <mxGeometry x="27.196495619524406" width="27.196495619524406" height="60" as="geometry" />
        </mxCell>
        <mxCell id="p7uoksNzp9pEg4KGuEPH-6" value="2" style="rounded=0;whiteSpace=wrap;html=1;verticalAlign=top;" vertex="1" parent="p7uoksNzp9pEg4KGuEPH-22">
          <mxGeometry x="54.39299123904881" width="27.196495619524406" height="60" as="geometry" />
        </mxCell>
        <mxCell id="p7uoksNzp9pEg4KGuEPH-7" value="3&lt;br&gt;&lt;font color=&quot;#ff3333&quot;&gt;Hash A&lt;/font&gt;" style="rounded=0;whiteSpace=wrap;html=1;verticalAlign=top;" vertex="1" parent="p7uoksNzp9pEg4KGuEPH-22">
          <mxGeometry x="81.5894868585732" width="27.196495619524406" height="60" as="geometry" />
        </mxCell>
        <mxCell id="p7uoksNzp9pEg4KGuEPH-8" value="4" style="rounded=0;whiteSpace=wrap;html=1;verticalAlign=top;" vertex="1" parent="p7uoksNzp9pEg4KGuEPH-22">
          <mxGeometry x="108.78598247809762" width="27.196495619524406" height="60" as="geometry" />
        </mxCell>
        <mxCell id="p7uoksNzp9pEg4KGuEPH-9" value="5&lt;br&gt;&lt;font color=&quot;#ff3333&quot;&gt;Hash E&lt;/font&gt;" style="rounded=0;whiteSpace=wrap;html=1;verticalAlign=top;" vertex="1" parent="p7uoksNzp9pEg4KGuEPH-22">
          <mxGeometry x="135.98247809762202" width="27.196495619524406" height="60" as="geometry" />
        </mxCell>
        <mxCell id="p7uoksNzp9pEg4KGuEPH-10" value="7" style="rounded=0;whiteSpace=wrap;html=1;verticalAlign=top;" vertex="1" parent="p7uoksNzp9pEg4KGuEPH-22">
          <mxGeometry x="190.37546933667088" width="27.196495619524406" height="60" as="geometry" />
        </mxCell>
        <mxCell id="p7uoksNzp9pEg4KGuEPH-11" value="6" style="rounded=0;whiteSpace=wrap;html=1;verticalAlign=top;" vertex="1" parent="p7uoksNzp9pEg4KGuEPH-22">
          <mxGeometry x="163.1789737171464" width="27.196495619524406" height="60" as="geometry" />
        </mxCell>
        <mxCell id="p7uoksNzp9pEg4KGuEPH-12" value="8" style="rounded=0;whiteSpace=wrap;html=1;verticalAlign=top;" vertex="1" parent="p7uoksNzp9pEg4KGuEPH-22">
          <mxGeometry x="217.57196495619525" width="27.196495619524406" height="60" as="geometry" />
        </mxCell>
        <mxCell id="p7uoksNzp9pEg4KGuEPH-13" value="9" style="rounded=0;whiteSpace=wrap;html=1;verticalAlign=top;" vertex="1" parent="p7uoksNzp9pEg4KGuEPH-22">
          <mxGeometry x="244.76846057571962" width="27.196495619524406" height="60" as="geometry" />
        </mxCell>
        <mxCell id="p7uoksNzp9pEg4KGuEPH-14" value="A" style="rounded=0;whiteSpace=wrap;html=1;verticalAlign=top;" vertex="1" parent="p7uoksNzp9pEg4KGuEPH-22">
          <mxGeometry x="271.96495619524404" width="27.196495619524406" height="60" as="geometry" />
        </mxCell>
        <mxCell id="p7uoksNzp9pEg4KGuEPH-15" value="B" style="rounded=0;whiteSpace=wrap;html=1;verticalAlign=top;" vertex="1" parent="p7uoksNzp9pEg4KGuEPH-22">
          <mxGeometry x="299.16145181476844" width="27.196495619524406" height="60" as="geometry" />
        </mxCell>
        <mxCell id="p7uoksNzp9pEg4KGuEPH-16" value="C&lt;br&gt;&lt;font color=&quot;#ff3333&quot;&gt;Hash B&lt;/font&gt;" style="rounded=0;whiteSpace=wrap;html=1;verticalAlign=top;" vertex="1" parent="p7uoksNzp9pEg4KGuEPH-22">
          <mxGeometry x="326.3579474342928" width="27.196495619524406" height="60" as="geometry" />
        </mxCell>
        <mxCell id="p7uoksNzp9pEg4KGuEPH-17" value="D" style="rounded=0;whiteSpace=wrap;html=1;verticalAlign=top;" vertex="1" parent="p7uoksNzp9pEg4KGuEPH-22">
          <mxGeometry x="353.55444305381707" width="27.196495619524406" height="60" as="geometry" />
        </mxCell>
        <mxCell id="p7uoksNzp9pEg4KGuEPH-18" value="E" style="rounded=0;whiteSpace=wrap;html=1;verticalAlign=top;" vertex="1" parent="p7uoksNzp9pEg4KGuEPH-22">
          <mxGeometry x="380.75093867334175" width="27.196495619524406" height="60" as="geometry" />
        </mxCell>
        <mxCell id="p7uoksNzp9pEg4KGuEPH-19" value="F" style="rounded=0;whiteSpace=wrap;html=1;verticalAlign=top;" vertex="1" parent="p7uoksNzp9pEg4KGuEPH-22">
          <mxGeometry x="407.94743429286603" width="27.196495619524406" height="60" as="geometry" />
        </mxCell>
        <mxCell id="p7uoksNzp9pEg4KGuEPH-20" value="" style="rounded=0;whiteSpace=wrap;html=1;fillColor=#dae8fc;strokeColor=#6c8ebf;verticalAlign=middle;align=center;fontSize=25;" vertex="1" parent="p7uoksNzp9pEg4KGuEPH-22">
          <mxGeometry x="435.14127659574467" width="94.85872340425533" height="60" as="geometry" />
        </mxCell>
        <mxCell id="p7uoksNzp9pEg4KGuEPH-156" value="" style="group" vertex="1" connectable="0" parent="1">
          <mxGeometry x="-210" y="510" width="490" height="570" as="geometry" />
        </mxCell>
        <mxCell id="p7uoksNzp9pEg4KGuEPH-157" value="" style="ellipse;whiteSpace=wrap;html=1;aspect=fixed;" vertex="1" parent="p7uoksNzp9pEg4KGuEPH-156">
          <mxGeometry x="-70" y="-25" width="570" height="570" as="geometry" />
        </mxCell>
        <mxCell id="p7uoksNzp9pEg4KGuEPH-158" value="&lt;font style=&quot;font-size: 30px;&quot;&gt;Hash A&lt;/font&gt;" style="rounded=0;whiteSpace=wrap;html=1;fontStyle=1;fillColor=#f8cecc;strokeColor=#b85450;fontSize=30;" vertex="1" parent="p7uoksNzp9pEg4KGuEPH-156">
          <mxGeometry x="142.5" y="90" width="145" height="100" as="geometry" />
        </mxCell>
        <mxCell id="p7uoksNzp9pEg4KGuEPH-159" value="" style="group" vertex="1" connectable="0" parent="p7uoksNzp9pEg4KGuEPH-156">
          <mxGeometry x="-50" y="230" width="530" height="60" as="geometry" />
        </mxCell>
        <mxCell id="p7uoksNzp9pEg4KGuEPH-160" value="0" style="rounded=0;whiteSpace=wrap;html=1;fontStyle=0;verticalAlign=top;" vertex="1" parent="p7uoksNzp9pEg4KGuEPH-159">
          <mxGeometry width="27.196495619524406" height="60" as="geometry" />
        </mxCell>
        <mxCell id="p7uoksNzp9pEg4KGuEPH-161" value="1" style="rounded=0;whiteSpace=wrap;html=1;fontStyle=0;verticalAlign=top;" vertex="1" parent="p7uoksNzp9pEg4KGuEPH-159">
          <mxGeometry x="27.196495619524406" width="27.196495619524406" height="60" as="geometry" />
        </mxCell>
        <mxCell id="p7uoksNzp9pEg4KGuEPH-162" value="2" style="rounded=0;whiteSpace=wrap;html=1;verticalAlign=top;" vertex="1" parent="p7uoksNzp9pEg4KGuEPH-159">
          <mxGeometry x="54.39299123904881" width="27.196495619524406" height="60" as="geometry" />
        </mxCell>
        <mxCell id="p7uoksNzp9pEg4KGuEPH-163" value="3" style="rounded=0;whiteSpace=wrap;html=1;verticalAlign=top;" vertex="1" parent="p7uoksNzp9pEg4KGuEPH-159">
          <mxGeometry x="81.5894868585732" width="27.196495619524406" height="60" as="geometry" />
        </mxCell>
        <mxCell id="p7uoksNzp9pEg4KGuEPH-164" value="4" style="rounded=0;whiteSpace=wrap;html=1;verticalAlign=top;" vertex="1" parent="p7uoksNzp9pEg4KGuEPH-159">
          <mxGeometry x="108.78598247809762" width="27.196495619524406" height="60" as="geometry" />
        </mxCell>
        <mxCell id="p7uoksNzp9pEg4KGuEPH-165" value="5" style="rounded=0;whiteSpace=wrap;html=1;verticalAlign=top;" vertex="1" parent="p7uoksNzp9pEg4KGuEPH-159">
          <mxGeometry x="135.98247809762202" width="27.196495619524406" height="60" as="geometry" />
        </mxCell>
        <mxCell id="p7uoksNzp9pEg4KGuEPH-166" value="7" style="rounded=0;whiteSpace=wrap;html=1;verticalAlign=top;" vertex="1" parent="p7uoksNzp9pEg4KGuEPH-159">
          <mxGeometry x="190.37546933667088" width="27.196495619524406" height="60" as="geometry" />
        </mxCell>
        <mxCell id="p7uoksNzp9pEg4KGuEPH-167" value="6" style="rounded=0;whiteSpace=wrap;html=1;verticalAlign=top;" vertex="1" parent="p7uoksNzp9pEg4KGuEPH-159">
          <mxGeometry x="163.1789737171464" width="27.196495619524406" height="60" as="geometry" />
        </mxCell>
        <mxCell id="p7uoksNzp9pEg4KGuEPH-168" value="8" style="rounded=0;whiteSpace=wrap;html=1;verticalAlign=top;" vertex="1" parent="p7uoksNzp9pEg4KGuEPH-159">
          <mxGeometry x="217.57196495619525" width="27.196495619524406" height="60" as="geometry" />
        </mxCell>
        <mxCell id="p7uoksNzp9pEg4KGuEPH-169" value="9&lt;br&gt;&lt;font color=&quot;#ff3333&quot;&gt;Hash C&lt;/font&gt;" style="rounded=0;whiteSpace=wrap;html=1;verticalAlign=top;" vertex="1" parent="p7uoksNzp9pEg4KGuEPH-159">
          <mxGeometry x="244.76846057571962" width="27.196495619524406" height="60" as="geometry" />
        </mxCell>
        <mxCell id="p7uoksNzp9pEg4KGuEPH-170" value="A" style="rounded=0;whiteSpace=wrap;html=1;verticalAlign=top;" vertex="1" parent="p7uoksNzp9pEg4KGuEPH-159">
          <mxGeometry x="271.96495619524404" width="27.196495619524406" height="60" as="geometry" />
        </mxCell>
        <mxCell id="p7uoksNzp9pEg4KGuEPH-171" value="B" style="rounded=0;whiteSpace=wrap;html=1;verticalAlign=top;" vertex="1" parent="p7uoksNzp9pEg4KGuEPH-159">
          <mxGeometry x="299.16145181476844" width="27.196495619524406" height="60" as="geometry" />
        </mxCell>
        <mxCell id="p7uoksNzp9pEg4KGuEPH-172" value="C" style="rounded=0;whiteSpace=wrap;html=1;verticalAlign=top;" vertex="1" parent="p7uoksNzp9pEg4KGuEPH-159">
          <mxGeometry x="326.3579474342928" width="27.196495619524406" height="60" as="geometry" />
        </mxCell>
        <mxCell id="p7uoksNzp9pEg4KGuEPH-173" value="D" style="rounded=0;whiteSpace=wrap;html=1;verticalAlign=top;" vertex="1" parent="p7uoksNzp9pEg4KGuEPH-159">
          <mxGeometry x="353.55444305381707" width="27.196495619524406" height="60" as="geometry" />
        </mxCell>
        <mxCell id="p7uoksNzp9pEg4KGuEPH-174" value="E" style="rounded=0;whiteSpace=wrap;html=1;verticalAlign=top;" vertex="1" parent="p7uoksNzp9pEg4KGuEPH-159">
          <mxGeometry x="380.75093867334175" width="27.196495619524406" height="60" as="geometry" />
        </mxCell>
        <mxCell id="p7uoksNzp9pEg4KGuEPH-175" value="F" style="rounded=0;whiteSpace=wrap;html=1;verticalAlign=top;" vertex="1" parent="p7uoksNzp9pEg4KGuEPH-159">
          <mxGeometry x="407.94743429286603" width="27.196495619524406" height="60" as="geometry" />
        </mxCell>
        <mxCell id="p7uoksNzp9pEg4KGuEPH-176" value="" style="rounded=0;whiteSpace=wrap;html=1;fillColor=#dae8fc;strokeColor=#6c8ebf;verticalAlign=middle;align=center;fontSize=25;" vertex="1" parent="p7uoksNzp9pEg4KGuEPH-159">
          <mxGeometry x="435.14127659574467" width="94.85872340425533" height="60" as="geometry" />
        </mxCell>
        <mxCell id="p7uoksNzp9pEg4KGuEPH-177" value="" style="group" vertex="1" connectable="0" parent="1">
          <mxGeometry x="640" y="635" width="490" height="570" as="geometry" />
        </mxCell>
        <mxCell id="p7uoksNzp9pEg4KGuEPH-178" value="" style="ellipse;whiteSpace=wrap;html=1;aspect=fixed;" vertex="1" parent="p7uoksNzp9pEg4KGuEPH-177">
          <mxGeometry x="-70" y="-25" width="570" height="570" as="geometry" />
        </mxCell>
        <mxCell id="p7uoksNzp9pEg4KGuEPH-179" value="&lt;font style=&quot;font-size: 30px;&quot;&gt;Hash E&lt;/font&gt;" style="rounded=0;whiteSpace=wrap;html=1;fontStyle=1;fillColor=#f8cecc;strokeColor=#b85450;fontSize=30;" vertex="1" parent="p7uoksNzp9pEg4KGuEPH-177">
          <mxGeometry x="142.5" y="90" width="145" height="100" as="geometry" />
        </mxCell>
        <mxCell id="p7uoksNzp9pEg4KGuEPH-180" value="" style="group" vertex="1" connectable="0" parent="p7uoksNzp9pEg4KGuEPH-177">
          <mxGeometry x="-50" y="230" width="530" height="60" as="geometry" />
        </mxCell>
        <mxCell id="p7uoksNzp9pEg4KGuEPH-181" value="0" style="rounded=0;whiteSpace=wrap;html=1;fontStyle=0;verticalAlign=top;" vertex="1" parent="p7uoksNzp9pEg4KGuEPH-180">
          <mxGeometry width="27.196495619524406" height="60" as="geometry" />
        </mxCell>
        <mxCell id="p7uoksNzp9pEg4KGuEPH-182" value="1" style="rounded=0;whiteSpace=wrap;html=1;fontStyle=0;verticalAlign=top;" vertex="1" parent="p7uoksNzp9pEg4KGuEPH-180">
          <mxGeometry x="27.196495619524406" width="27.196495619524406" height="60" as="geometry" />
        </mxCell>
        <mxCell id="p7uoksNzp9pEg4KGuEPH-183" value="2" style="rounded=0;whiteSpace=wrap;html=1;verticalAlign=top;" vertex="1" parent="p7uoksNzp9pEg4KGuEPH-180">
          <mxGeometry x="54.39299123904881" width="27.196495619524406" height="60" as="geometry" />
        </mxCell>
        <mxCell id="p7uoksNzp9pEg4KGuEPH-184" value="3" style="rounded=0;whiteSpace=wrap;html=1;verticalAlign=top;" vertex="1" parent="p7uoksNzp9pEg4KGuEPH-180">
          <mxGeometry x="81.5894868585732" width="27.196495619524406" height="60" as="geometry" />
        </mxCell>
        <mxCell id="p7uoksNzp9pEg4KGuEPH-185" value="4" style="rounded=0;whiteSpace=wrap;html=1;verticalAlign=top;" vertex="1" parent="p7uoksNzp9pEg4KGuEPH-180">
          <mxGeometry x="108.78598247809762" width="27.196495619524406" height="60" as="geometry" />
        </mxCell>
        <mxCell id="p7uoksNzp9pEg4KGuEPH-186" value="5" style="rounded=0;whiteSpace=wrap;html=1;verticalAlign=top;" vertex="1" parent="p7uoksNzp9pEg4KGuEPH-180">
          <mxGeometry x="135.98247809762202" width="27.196495619524406" height="60" as="geometry" />
        </mxCell>
        <mxCell id="p7uoksNzp9pEg4KGuEPH-187" value="7" style="rounded=0;whiteSpace=wrap;html=1;verticalAlign=top;" vertex="1" parent="p7uoksNzp9pEg4KGuEPH-180">
          <mxGeometry x="190.37546933667088" width="27.196495619524406" height="60" as="geometry" />
        </mxCell>
        <mxCell id="p7uoksNzp9pEg4KGuEPH-188" value="6&lt;br&gt;&lt;font color=&quot;#ff3333&quot;&gt;Hash F&lt;/font&gt;" style="rounded=0;whiteSpace=wrap;html=1;verticalAlign=top;" vertex="1" parent="p7uoksNzp9pEg4KGuEPH-180">
          <mxGeometry x="163.1789737171464" width="27.196495619524406" height="60" as="geometry" />
        </mxCell>
        <mxCell id="p7uoksNzp9pEg4KGuEPH-189" value="8" style="rounded=0;whiteSpace=wrap;html=1;verticalAlign=top;" vertex="1" parent="p7uoksNzp9pEg4KGuEPH-180">
          <mxGeometry x="217.57196495619525" width="27.196495619524406" height="60" as="geometry" />
        </mxCell>
        <mxCell id="p7uoksNzp9pEg4KGuEPH-190" value="9" style="rounded=0;whiteSpace=wrap;html=1;verticalAlign=top;" vertex="1" parent="p7uoksNzp9pEg4KGuEPH-180">
          <mxGeometry x="244.76846057571962" width="27.196495619524406" height="60" as="geometry" />
        </mxCell>
        <mxCell id="p7uoksNzp9pEg4KGuEPH-191" value="A" style="rounded=0;whiteSpace=wrap;html=1;verticalAlign=top;" vertex="1" parent="p7uoksNzp9pEg4KGuEPH-180">
          <mxGeometry x="271.96495619524404" width="27.196495619524406" height="60" as="geometry" />
        </mxCell>
        <mxCell id="p7uoksNzp9pEg4KGuEPH-192" value="B" style="rounded=0;whiteSpace=wrap;html=1;verticalAlign=top;" vertex="1" parent="p7uoksNzp9pEg4KGuEPH-180">
          <mxGeometry x="299.16145181476844" width="27.196495619524406" height="60" as="geometry" />
        </mxCell>
        <mxCell id="p7uoksNzp9pEg4KGuEPH-193" value="C" style="rounded=0;whiteSpace=wrap;html=1;verticalAlign=top;" vertex="1" parent="p7uoksNzp9pEg4KGuEPH-180">
          <mxGeometry x="326.3579474342928" width="27.196495619524406" height="60" as="geometry" />
        </mxCell>
        <mxCell id="p7uoksNzp9pEg4KGuEPH-194" value="D" style="rounded=0;whiteSpace=wrap;html=1;verticalAlign=top;" vertex="1" parent="p7uoksNzp9pEg4KGuEPH-180">
          <mxGeometry x="353.55444305381707" width="27.196495619524406" height="60" as="geometry" />
        </mxCell>
        <mxCell id="p7uoksNzp9pEg4KGuEPH-195" value="E" style="rounded=0;whiteSpace=wrap;html=1;verticalAlign=top;" vertex="1" parent="p7uoksNzp9pEg4KGuEPH-180">
          <mxGeometry x="380.75093867334175" width="27.196495619524406" height="60" as="geometry" />
        </mxCell>
        <mxCell id="p7uoksNzp9pEg4KGuEPH-196" value="F" style="rounded=0;whiteSpace=wrap;html=1;verticalAlign=top;" vertex="1" parent="p7uoksNzp9pEg4KGuEPH-180">
          <mxGeometry x="407.94743429286603" width="27.196495619524406" height="60" as="geometry" />
        </mxCell>
        <mxCell id="p7uoksNzp9pEg4KGuEPH-197" value="" style="rounded=0;whiteSpace=wrap;html=1;fillColor=#dae8fc;strokeColor=#6c8ebf;verticalAlign=middle;align=center;fontSize=25;" vertex="1" parent="p7uoksNzp9pEg4KGuEPH-180">
          <mxGeometry x="435.14127659574467" width="94.85872340425533" height="60" as="geometry" />
        </mxCell>
        <mxCell id="p7uoksNzp9pEg4KGuEPH-198" value="" style="group" vertex="1" connectable="0" parent="1">
          <mxGeometry x="1440" y="545" width="490" height="570" as="geometry" />
        </mxCell>
        <mxCell id="p7uoksNzp9pEg4KGuEPH-199" value="" style="ellipse;whiteSpace=wrap;html=1;aspect=fixed;" vertex="1" parent="p7uoksNzp9pEg4KGuEPH-198">
          <mxGeometry x="-70" y="-25" width="570" height="570" as="geometry" />
        </mxCell>
        <mxCell id="p7uoksNzp9pEg4KGuEPH-200" value="&lt;font style=&quot;font-size: 30px;&quot;&gt;Hash B&lt;/font&gt;" style="rounded=0;whiteSpace=wrap;html=1;fontStyle=1;fillColor=#f8cecc;strokeColor=#b85450;fontSize=30;" vertex="1" parent="p7uoksNzp9pEg4KGuEPH-198">
          <mxGeometry x="142.5" y="90" width="145" height="100" as="geometry" />
        </mxCell>
        <mxCell id="p7uoksNzp9pEg4KGuEPH-201" value="" style="group" vertex="1" connectable="0" parent="p7uoksNzp9pEg4KGuEPH-198">
          <mxGeometry x="-50" y="230" width="530" height="60" as="geometry" />
        </mxCell>
        <mxCell id="p7uoksNzp9pEg4KGuEPH-202" value="0" style="rounded=0;whiteSpace=wrap;html=1;fontStyle=0;verticalAlign=top;" vertex="1" parent="p7uoksNzp9pEg4KGuEPH-201">
          <mxGeometry width="27.196495619524406" height="60" as="geometry" />
        </mxCell>
        <mxCell id="p7uoksNzp9pEg4KGuEPH-203" value="1" style="rounded=0;whiteSpace=wrap;html=1;fontStyle=0;verticalAlign=top;" vertex="1" parent="p7uoksNzp9pEg4KGuEPH-201">
          <mxGeometry x="27.196495619524406" width="27.196495619524406" height="60" as="geometry" />
        </mxCell>
        <mxCell id="p7uoksNzp9pEg4KGuEPH-204" value="2" style="rounded=0;whiteSpace=wrap;html=1;verticalAlign=top;" vertex="1" parent="p7uoksNzp9pEg4KGuEPH-201">
          <mxGeometry x="54.39299123904881" width="27.196495619524406" height="60" as="geometry" />
        </mxCell>
        <mxCell id="p7uoksNzp9pEg4KGuEPH-205" value="3" style="rounded=0;whiteSpace=wrap;html=1;verticalAlign=top;" vertex="1" parent="p7uoksNzp9pEg4KGuEPH-201">
          <mxGeometry x="81.5894868585732" width="27.196495619524406" height="60" as="geometry" />
        </mxCell>
        <mxCell id="p7uoksNzp9pEg4KGuEPH-206" value="4" style="rounded=0;whiteSpace=wrap;html=1;verticalAlign=top;" vertex="1" parent="p7uoksNzp9pEg4KGuEPH-201">
          <mxGeometry x="108.78598247809762" width="27.196495619524406" height="60" as="geometry" />
        </mxCell>
        <mxCell id="p7uoksNzp9pEg4KGuEPH-207" value="5" style="rounded=0;whiteSpace=wrap;html=1;verticalAlign=top;" vertex="1" parent="p7uoksNzp9pEg4KGuEPH-201">
          <mxGeometry x="135.98247809762202" width="27.196495619524406" height="60" as="geometry" />
        </mxCell>
        <mxCell id="p7uoksNzp9pEg4KGuEPH-208" value="7" style="rounded=0;whiteSpace=wrap;html=1;verticalAlign=top;" vertex="1" parent="p7uoksNzp9pEg4KGuEPH-201">
          <mxGeometry x="190.37546933667088" width="27.196495619524406" height="60" as="geometry" />
        </mxCell>
        <mxCell id="p7uoksNzp9pEg4KGuEPH-209" value="6" style="rounded=0;whiteSpace=wrap;html=1;verticalAlign=top;" vertex="1" parent="p7uoksNzp9pEg4KGuEPH-201">
          <mxGeometry x="163.1789737171464" width="27.196495619524406" height="60" as="geometry" />
        </mxCell>
        <mxCell id="p7uoksNzp9pEg4KGuEPH-210" value="8" style="rounded=0;whiteSpace=wrap;html=1;verticalAlign=top;" vertex="1" parent="p7uoksNzp9pEg4KGuEPH-201">
          <mxGeometry x="217.57196495619525" width="27.196495619524406" height="60" as="geometry" />
        </mxCell>
        <mxCell id="p7uoksNzp9pEg4KGuEPH-211" value="9" style="rounded=0;whiteSpace=wrap;html=1;verticalAlign=top;" vertex="1" parent="p7uoksNzp9pEg4KGuEPH-201">
          <mxGeometry x="244.76846057571962" width="27.196495619524406" height="60" as="geometry" />
        </mxCell>
        <mxCell id="p7uoksNzp9pEg4KGuEPH-212" value="A&lt;br&gt;&lt;font color=&quot;#ff3333&quot;&gt;Hash I&lt;/font&gt;" style="rounded=0;whiteSpace=wrap;html=1;verticalAlign=top;" vertex="1" parent="p7uoksNzp9pEg4KGuEPH-201">
          <mxGeometry x="271.96495619524404" width="27.196495619524406" height="60" as="geometry" />
        </mxCell>
        <mxCell id="p7uoksNzp9pEg4KGuEPH-213" value="B" style="rounded=0;whiteSpace=wrap;html=1;verticalAlign=top;" vertex="1" parent="p7uoksNzp9pEg4KGuEPH-201">
          <mxGeometry x="299.16145181476844" width="27.196495619524406" height="60" as="geometry" />
        </mxCell>
        <mxCell id="p7uoksNzp9pEg4KGuEPH-214" value="C" style="rounded=0;whiteSpace=wrap;html=1;verticalAlign=top;" vertex="1" parent="p7uoksNzp9pEg4KGuEPH-201">
          <mxGeometry x="326.3579474342928" width="27.196495619524406" height="60" as="geometry" />
        </mxCell>
        <mxCell id="p7uoksNzp9pEg4KGuEPH-215" value="D" style="rounded=0;whiteSpace=wrap;html=1;verticalAlign=top;" vertex="1" parent="p7uoksNzp9pEg4KGuEPH-201">
          <mxGeometry x="353.55444305381707" width="27.196495619524406" height="60" as="geometry" />
        </mxCell>
        <mxCell id="p7uoksNzp9pEg4KGuEPH-216" value="E" style="rounded=0;whiteSpace=wrap;html=1;verticalAlign=top;" vertex="1" parent="p7uoksNzp9pEg4KGuEPH-201">
          <mxGeometry x="380.75093867334175" width="27.196495619524406" height="60" as="geometry" />
        </mxCell>
        <mxCell id="p7uoksNzp9pEg4KGuEPH-217" value="F" style="rounded=0;whiteSpace=wrap;html=1;verticalAlign=top;" vertex="1" parent="p7uoksNzp9pEg4KGuEPH-201">
          <mxGeometry x="407.94743429286603" width="27.196495619524406" height="60" as="geometry" />
        </mxCell>
        <mxCell id="p7uoksNzp9pEg4KGuEPH-218" value="" style="rounded=0;whiteSpace=wrap;html=1;fillColor=#dae8fc;strokeColor=#6c8ebf;verticalAlign=middle;align=center;fontSize=25;" vertex="1" parent="p7uoksNzp9pEg4KGuEPH-201">
          <mxGeometry x="435.14127659574467" width="94.85872340425533" height="60" as="geometry" />
        </mxCell>
        <mxCell id="p7uoksNzp9pEg4KGuEPH-219" style="edgeStyle=orthogonalEdgeStyle;rounded=0;orthogonalLoop=1;jettySize=auto;html=1;exitX=0.5;exitY=1;exitDx=0;exitDy=0;entryX=0.5;entryY=0;entryDx=0;entryDy=0;strokeWidth=3;" edge="1" parent="1" source="p7uoksNzp9pEg4KGuEPH-7" target="p7uoksNzp9pEg4KGuEPH-157">
          <mxGeometry relative="1" as="geometry" />
        </mxCell>
        <mxCell id="p7uoksNzp9pEg4KGuEPH-222" value="3" style="edgeLabel;html=1;align=center;verticalAlign=middle;resizable=0;points=[];" vertex="1" connectable="0" parent="p7uoksNzp9pEg4KGuEPH-219">
          <mxGeometry x="0.0264" relative="1" as="geometry">
            <mxPoint x="-1" as="offset" />
          </mxGeometry>
        </mxCell>
        <mxCell id="p7uoksNzp9pEg4KGuEPH-224" value="&lt;font style=&quot;font-size: 60px;&quot;&gt;3&lt;/font&gt;" style="edgeLabel;html=1;align=center;verticalAlign=middle;resizable=0;points=[];fontSize=60;fontStyle=1" vertex="1" connectable="0" parent="p7uoksNzp9pEg4KGuEPH-219">
          <mxGeometry x="0.0127" y="-2" relative="1" as="geometry">
            <mxPoint as="offset" />
          </mxGeometry>
        </mxCell>
        <mxCell id="p7uoksNzp9pEg4KGuEPH-221" style="edgeStyle=orthogonalEdgeStyle;rounded=0;orthogonalLoop=1;jettySize=auto;html=1;exitX=0.5;exitY=1;exitDx=0;exitDy=0;strokeWidth=3;" edge="1" parent="1" source="p7uoksNzp9pEg4KGuEPH-16" target="p7uoksNzp9pEg4KGuEPH-199">
          <mxGeometry relative="1" as="geometry" />
        </mxCell>
        <mxCell id="p7uoksNzp9pEg4KGuEPH-226" value="&lt;font style=&quot;font-size: 60px;&quot;&gt;c&lt;/font&gt;" style="edgeLabel;html=1;align=center;verticalAlign=middle;resizable=0;points=[];fontSize=60;fontStyle=1" vertex="1" connectable="0" parent="p7uoksNzp9pEg4KGuEPH-221">
          <mxGeometry x="0.2092" y="6" relative="1" as="geometry">
            <mxPoint x="-1" as="offset" />
          </mxGeometry>
        </mxCell>
        <mxCell id="p7uoksNzp9pEg4KGuEPH-227" value="" style="group" vertex="1" connectable="0" parent="1">
          <mxGeometry x="-200" y="1205" width="490" height="570" as="geometry" />
        </mxCell>
        <mxCell id="p7uoksNzp9pEg4KGuEPH-228" value="" style="ellipse;whiteSpace=wrap;html=1;aspect=fixed;" vertex="1" parent="p7uoksNzp9pEg4KGuEPH-227">
          <mxGeometry x="-70" y="-25" width="570" height="570" as="geometry" />
        </mxCell>
        <mxCell id="p7uoksNzp9pEg4KGuEPH-229" value="&lt;font style=&quot;font-size: 30px;&quot;&gt;Hash C&lt;/font&gt;" style="rounded=0;whiteSpace=wrap;html=1;fontStyle=1;fillColor=#f8cecc;strokeColor=#b85450;fontSize=30;" vertex="1" parent="p7uoksNzp9pEg4KGuEPH-227">
          <mxGeometry x="142.5" y="90" width="145" height="100" as="geometry" />
        </mxCell>
        <mxCell id="p7uoksNzp9pEg4KGuEPH-230" value="" style="group" vertex="1" connectable="0" parent="p7uoksNzp9pEg4KGuEPH-227">
          <mxGeometry x="-50" y="230" width="530" height="60" as="geometry" />
        </mxCell>
        <mxCell id="p7uoksNzp9pEg4KGuEPH-231" value="0" style="rounded=0;whiteSpace=wrap;html=1;fontStyle=0;verticalAlign=top;" vertex="1" parent="p7uoksNzp9pEg4KGuEPH-230">
          <mxGeometry width="27.196495619524406" height="60" as="geometry" />
        </mxCell>
        <mxCell id="p7uoksNzp9pEg4KGuEPH-232" value="1" style="rounded=0;whiteSpace=wrap;html=1;fontStyle=0;verticalAlign=top;" vertex="1" parent="p7uoksNzp9pEg4KGuEPH-230">
          <mxGeometry x="27.196495619524406" width="27.196495619524406" height="60" as="geometry" />
        </mxCell>
        <mxCell id="p7uoksNzp9pEg4KGuEPH-233" value="2" style="rounded=0;whiteSpace=wrap;html=1;verticalAlign=top;" vertex="1" parent="p7uoksNzp9pEg4KGuEPH-230">
          <mxGeometry x="54.39299123904881" width="27.196495619524406" height="60" as="geometry" />
        </mxCell>
        <mxCell id="p7uoksNzp9pEg4KGuEPH-234" value="3" style="rounded=0;whiteSpace=wrap;html=1;verticalAlign=top;" vertex="1" parent="p7uoksNzp9pEg4KGuEPH-230">
          <mxGeometry x="81.5894868585732" width="27.196495619524406" height="60" as="geometry" />
        </mxCell>
        <mxCell id="p7uoksNzp9pEg4KGuEPH-235" value="4" style="rounded=0;whiteSpace=wrap;html=1;verticalAlign=top;" vertex="1" parent="p7uoksNzp9pEg4KGuEPH-230">
          <mxGeometry x="108.78598247809762" width="27.196495619524406" height="60" as="geometry" />
        </mxCell>
        <mxCell id="p7uoksNzp9pEg4KGuEPH-236" value="5&lt;br&gt;&lt;font color=&quot;#ff3333&quot;&gt;Hash D&lt;/font&gt;" style="rounded=0;whiteSpace=wrap;html=1;verticalAlign=top;" vertex="1" parent="p7uoksNzp9pEg4KGuEPH-230">
          <mxGeometry x="135.98247809762202" width="27.196495619524406" height="60" as="geometry" />
        </mxCell>
        <mxCell id="p7uoksNzp9pEg4KGuEPH-237" value="7" style="rounded=0;whiteSpace=wrap;html=1;verticalAlign=top;" vertex="1" parent="p7uoksNzp9pEg4KGuEPH-230">
          <mxGeometry x="190.37546933667088" width="27.196495619524406" height="60" as="geometry" />
        </mxCell>
        <mxCell id="p7uoksNzp9pEg4KGuEPH-238" value="6" style="rounded=0;whiteSpace=wrap;html=1;verticalAlign=top;" vertex="1" parent="p7uoksNzp9pEg4KGuEPH-230">
          <mxGeometry x="163.1789737171464" width="27.196495619524406" height="60" as="geometry" />
        </mxCell>
        <mxCell id="p7uoksNzp9pEg4KGuEPH-239" value="8" style="rounded=0;whiteSpace=wrap;html=1;verticalAlign=top;" vertex="1" parent="p7uoksNzp9pEg4KGuEPH-230">
          <mxGeometry x="217.57196495619525" width="27.196495619524406" height="60" as="geometry" />
        </mxCell>
        <mxCell id="p7uoksNzp9pEg4KGuEPH-240" value="9" style="rounded=0;whiteSpace=wrap;html=1;verticalAlign=top;" vertex="1" parent="p7uoksNzp9pEg4KGuEPH-230">
          <mxGeometry x="244.76846057571962" width="27.196495619524406" height="60" as="geometry" />
        </mxCell>
        <mxCell id="p7uoksNzp9pEg4KGuEPH-241" value="A" style="rounded=0;whiteSpace=wrap;html=1;verticalAlign=top;" vertex="1" parent="p7uoksNzp9pEg4KGuEPH-230">
          <mxGeometry x="271.96495619524404" width="27.196495619524406" height="60" as="geometry" />
        </mxCell>
        <mxCell id="p7uoksNzp9pEg4KGuEPH-242" value="B" style="rounded=0;whiteSpace=wrap;html=1;verticalAlign=top;" vertex="1" parent="p7uoksNzp9pEg4KGuEPH-230">
          <mxGeometry x="299.16145181476844" width="27.196495619524406" height="60" as="geometry" />
        </mxCell>
        <mxCell id="p7uoksNzp9pEg4KGuEPH-243" value="C" style="rounded=0;whiteSpace=wrap;html=1;verticalAlign=top;" vertex="1" parent="p7uoksNzp9pEg4KGuEPH-230">
          <mxGeometry x="326.3579474342928" width="27.196495619524406" height="60" as="geometry" />
        </mxCell>
        <mxCell id="p7uoksNzp9pEg4KGuEPH-244" value="D" style="rounded=0;whiteSpace=wrap;html=1;verticalAlign=top;" vertex="1" parent="p7uoksNzp9pEg4KGuEPH-230">
          <mxGeometry x="353.55444305381707" width="27.196495619524406" height="60" as="geometry" />
        </mxCell>
        <mxCell id="p7uoksNzp9pEg4KGuEPH-245" value="E" style="rounded=0;whiteSpace=wrap;html=1;verticalAlign=top;" vertex="1" parent="p7uoksNzp9pEg4KGuEPH-230">
          <mxGeometry x="380.75093867334175" width="27.196495619524406" height="60" as="geometry" />
        </mxCell>
        <mxCell id="p7uoksNzp9pEg4KGuEPH-246" value="F" style="rounded=0;whiteSpace=wrap;html=1;verticalAlign=top;" vertex="1" parent="p7uoksNzp9pEg4KGuEPH-230">
          <mxGeometry x="407.94743429286603" width="27.196495619524406" height="60" as="geometry" />
        </mxCell>
        <mxCell id="p7uoksNzp9pEg4KGuEPH-247" value="&lt;b style=&quot;font-size: 25px;&quot;&gt;&lt;font style=&quot;font-size: 25px;&quot;&gt;chicken&lt;/font&gt;&lt;/b&gt;" style="rounded=0;whiteSpace=wrap;html=1;fillColor=#dae8fc;strokeColor=#6c8ebf;verticalAlign=middle;align=center;fontSize=25;" vertex="1" parent="p7uoksNzp9pEg4KGuEPH-230">
          <mxGeometry x="435.14127659574467" width="94.85872340425533" height="60" as="geometry" />
        </mxCell>
        <mxCell id="p7uoksNzp9pEg4KGuEPH-248" value="" style="group" vertex="1" connectable="0" parent="1">
          <mxGeometry x="-230" y="1885" width="490" height="570" as="geometry" />
        </mxCell>
        <mxCell id="p7uoksNzp9pEg4KGuEPH-249" value="" style="ellipse;whiteSpace=wrap;html=1;aspect=fixed;" vertex="1" parent="p7uoksNzp9pEg4KGuEPH-248">
          <mxGeometry x="-70" y="-25" width="570" height="570" as="geometry" />
        </mxCell>
        <mxCell id="p7uoksNzp9pEg4KGuEPH-250" value="&lt;font style=&quot;font-size: 30px;&quot;&gt;Hash D&lt;/font&gt;" style="rounded=0;whiteSpace=wrap;html=1;fontStyle=1;fillColor=#f8cecc;strokeColor=#b85450;fontSize=30;" vertex="1" parent="p7uoksNzp9pEg4KGuEPH-248">
          <mxGeometry x="142.5" y="90" width="145" height="100" as="geometry" />
        </mxCell>
        <mxCell id="p7uoksNzp9pEg4KGuEPH-251" value="" style="group" vertex="1" connectable="0" parent="p7uoksNzp9pEg4KGuEPH-248">
          <mxGeometry x="-50" y="230" width="530" height="60" as="geometry" />
        </mxCell>
        <mxCell id="p7uoksNzp9pEg4KGuEPH-252" value="0" style="rounded=0;whiteSpace=wrap;html=1;fontStyle=0;verticalAlign=top;" vertex="1" parent="p7uoksNzp9pEg4KGuEPH-251">
          <mxGeometry width="27.196495619524406" height="60" as="geometry" />
        </mxCell>
        <mxCell id="p7uoksNzp9pEg4KGuEPH-253" value="1" style="rounded=0;whiteSpace=wrap;html=1;fontStyle=0;verticalAlign=top;" vertex="1" parent="p7uoksNzp9pEg4KGuEPH-251">
          <mxGeometry x="27.196495619524406" width="27.196495619524406" height="60" as="geometry" />
        </mxCell>
        <mxCell id="p7uoksNzp9pEg4KGuEPH-254" value="2" style="rounded=0;whiteSpace=wrap;html=1;verticalAlign=top;" vertex="1" parent="p7uoksNzp9pEg4KGuEPH-251">
          <mxGeometry x="54.39299123904881" width="27.196495619524406" height="60" as="geometry" />
        </mxCell>
        <mxCell id="p7uoksNzp9pEg4KGuEPH-255" value="3" style="rounded=0;whiteSpace=wrap;html=1;verticalAlign=top;" vertex="1" parent="p7uoksNzp9pEg4KGuEPH-251">
          <mxGeometry x="81.5894868585732" width="27.196495619524406" height="60" as="geometry" />
        </mxCell>
        <mxCell id="p7uoksNzp9pEg4KGuEPH-256" value="4" style="rounded=0;whiteSpace=wrap;html=1;verticalAlign=top;" vertex="1" parent="p7uoksNzp9pEg4KGuEPH-251">
          <mxGeometry x="108.78598247809762" width="27.196495619524406" height="60" as="geometry" />
        </mxCell>
        <mxCell id="p7uoksNzp9pEg4KGuEPH-257" value="5" style="rounded=0;whiteSpace=wrap;html=1;verticalAlign=top;" vertex="1" parent="p7uoksNzp9pEg4KGuEPH-251">
          <mxGeometry x="135.98247809762202" width="27.196495619524406" height="60" as="geometry" />
        </mxCell>
        <mxCell id="p7uoksNzp9pEg4KGuEPH-258" value="7" style="rounded=0;whiteSpace=wrap;html=1;verticalAlign=top;" vertex="1" parent="p7uoksNzp9pEg4KGuEPH-251">
          <mxGeometry x="190.37546933667088" width="27.196495619524406" height="60" as="geometry" />
        </mxCell>
        <mxCell id="p7uoksNzp9pEg4KGuEPH-259" value="6" style="rounded=0;whiteSpace=wrap;html=1;verticalAlign=top;" vertex="1" parent="p7uoksNzp9pEg4KGuEPH-251">
          <mxGeometry x="163.1789737171464" width="27.196495619524406" height="60" as="geometry" />
        </mxCell>
        <mxCell id="p7uoksNzp9pEg4KGuEPH-260" value="8" style="rounded=0;whiteSpace=wrap;html=1;verticalAlign=top;" vertex="1" parent="p7uoksNzp9pEg4KGuEPH-251">
          <mxGeometry x="217.57196495619525" width="27.196495619524406" height="60" as="geometry" />
        </mxCell>
        <mxCell id="p7uoksNzp9pEg4KGuEPH-261" value="9" style="rounded=0;whiteSpace=wrap;html=1;verticalAlign=top;" vertex="1" parent="p7uoksNzp9pEg4KGuEPH-251">
          <mxGeometry x="244.76846057571962" width="27.196495619524406" height="60" as="geometry" />
        </mxCell>
        <mxCell id="p7uoksNzp9pEg4KGuEPH-262" value="A" style="rounded=0;whiteSpace=wrap;html=1;verticalAlign=top;" vertex="1" parent="p7uoksNzp9pEg4KGuEPH-251">
          <mxGeometry x="271.96495619524404" width="27.196495619524406" height="60" as="geometry" />
        </mxCell>
        <mxCell id="p7uoksNzp9pEg4KGuEPH-263" value="B" style="rounded=0;whiteSpace=wrap;html=1;verticalAlign=top;" vertex="1" parent="p7uoksNzp9pEg4KGuEPH-251">
          <mxGeometry x="299.16145181476844" width="27.196495619524406" height="60" as="geometry" />
        </mxCell>
        <mxCell id="p7uoksNzp9pEg4KGuEPH-264" value="C" style="rounded=0;whiteSpace=wrap;html=1;verticalAlign=top;" vertex="1" parent="p7uoksNzp9pEg4KGuEPH-251">
          <mxGeometry x="326.3579474342928" width="27.196495619524406" height="60" as="geometry" />
        </mxCell>
        <mxCell id="p7uoksNzp9pEg4KGuEPH-265" value="D" style="rounded=0;whiteSpace=wrap;html=1;verticalAlign=top;" vertex="1" parent="p7uoksNzp9pEg4KGuEPH-251">
          <mxGeometry x="353.55444305381707" width="27.196495619524406" height="60" as="geometry" />
        </mxCell>
        <mxCell id="p7uoksNzp9pEg4KGuEPH-266" value="E" style="rounded=0;whiteSpace=wrap;html=1;verticalAlign=top;" vertex="1" parent="p7uoksNzp9pEg4KGuEPH-251">
          <mxGeometry x="380.75093867334175" width="27.196495619524406" height="60" as="geometry" />
        </mxCell>
        <mxCell id="p7uoksNzp9pEg4KGuEPH-267" value="F" style="rounded=0;whiteSpace=wrap;html=1;verticalAlign=top;" vertex="1" parent="p7uoksNzp9pEg4KGuEPH-251">
          <mxGeometry x="407.94743429286603" width="27.196495619524406" height="60" as="geometry" />
        </mxCell>
        <mxCell id="p7uoksNzp9pEg4KGuEPH-268" value="&lt;b style=&quot;font-size: 25px;&quot;&gt;&lt;font style=&quot;font-size: 25px;&quot;&gt;duck&lt;/font&gt;&lt;/b&gt;" style="rounded=0;whiteSpace=wrap;html=1;fillColor=#dae8fc;strokeColor=#6c8ebf;verticalAlign=middle;align=center;fontSize=25;" vertex="1" parent="p7uoksNzp9pEg4KGuEPH-251">
          <mxGeometry x="435.14127659574467" width="94.85872340425533" height="60" as="geometry" />
        </mxCell>
        <mxCell id="p7uoksNzp9pEg4KGuEPH-269" style="edgeStyle=orthogonalEdgeStyle;rounded=0;orthogonalLoop=1;jettySize=auto;html=1;exitX=0.5;exitY=1;exitDx=0;exitDy=0;strokeWidth=3;" edge="1" parent="1" source="p7uoksNzp9pEg4KGuEPH-169" target="p7uoksNzp9pEg4KGuEPH-228">
          <mxGeometry relative="1" as="geometry" />
        </mxCell>
        <mxCell id="p7uoksNzp9pEg4KGuEPH-426" value="&lt;font style=&quot;font-size: 60px;&quot;&gt;9&lt;/font&gt;" style="edgeLabel;html=1;align=center;verticalAlign=middle;resizable=0;points=[];fontSize=60;fontStyle=1" vertex="1" connectable="0" parent="p7uoksNzp9pEg4KGuEPH-269">
          <mxGeometry x="0.6754" y="2" relative="1" as="geometry">
            <mxPoint y="-1" as="offset" />
          </mxGeometry>
        </mxCell>
        <mxCell id="p7uoksNzp9pEg4KGuEPH-270" style="edgeStyle=orthogonalEdgeStyle;rounded=0;orthogonalLoop=1;jettySize=auto;html=1;exitX=0.25;exitY=1;exitDx=0;exitDy=0;strokeWidth=3;" edge="1" parent="1" source="p7uoksNzp9pEg4KGuEPH-236" target="p7uoksNzp9pEg4KGuEPH-249">
          <mxGeometry relative="1" as="geometry" />
        </mxCell>
        <mxCell id="p7uoksNzp9pEg4KGuEPH-427" value="&lt;font style=&quot;font-size: 60px;&quot;&gt;5&lt;/font&gt;" style="edgeLabel;html=1;align=center;verticalAlign=middle;resizable=0;points=[];fontSize=60;fontStyle=1" vertex="1" connectable="0" parent="p7uoksNzp9pEg4KGuEPH-270">
          <mxGeometry x="0.4354" y="4" relative="1" as="geometry">
            <mxPoint as="offset" />
          </mxGeometry>
        </mxCell>
        <mxCell id="p7uoksNzp9pEg4KGuEPH-271" value="" style="group" vertex="1" connectable="0" parent="1">
          <mxGeometry x="680" y="1285" width="490" height="570" as="geometry" />
        </mxCell>
        <mxCell id="p7uoksNzp9pEg4KGuEPH-272" value="" style="ellipse;whiteSpace=wrap;html=1;aspect=fixed;" vertex="1" parent="p7uoksNzp9pEg4KGuEPH-271">
          <mxGeometry x="-70" y="-25" width="570" height="570" as="geometry" />
        </mxCell>
        <mxCell id="p7uoksNzp9pEg4KGuEPH-273" value="&lt;font style=&quot;font-size: 30px;&quot;&gt;Hash F&lt;/font&gt;" style="rounded=0;whiteSpace=wrap;html=1;fontStyle=1;fillColor=#f8cecc;strokeColor=#b85450;fontSize=30;" vertex="1" parent="p7uoksNzp9pEg4KGuEPH-271">
          <mxGeometry x="142.5" y="90" width="145" height="100" as="geometry" />
        </mxCell>
        <mxCell id="p7uoksNzp9pEg4KGuEPH-274" value="" style="group" vertex="1" connectable="0" parent="p7uoksNzp9pEg4KGuEPH-271">
          <mxGeometry x="-50" y="230" width="530" height="60" as="geometry" />
        </mxCell>
        <mxCell id="p7uoksNzp9pEg4KGuEPH-275" value="0" style="rounded=0;whiteSpace=wrap;html=1;fontStyle=0;verticalAlign=top;" vertex="1" parent="p7uoksNzp9pEg4KGuEPH-274">
          <mxGeometry width="27.196495619524406" height="60" as="geometry" />
        </mxCell>
        <mxCell id="p7uoksNzp9pEg4KGuEPH-276" value="1" style="rounded=0;whiteSpace=wrap;html=1;fontStyle=0;verticalAlign=top;" vertex="1" parent="p7uoksNzp9pEg4KGuEPH-274">
          <mxGeometry x="27.196495619524406" width="27.196495619524406" height="60" as="geometry" />
        </mxCell>
        <mxCell id="p7uoksNzp9pEg4KGuEPH-277" value="2" style="rounded=0;whiteSpace=wrap;html=1;verticalAlign=top;" vertex="1" parent="p7uoksNzp9pEg4KGuEPH-274">
          <mxGeometry x="54.39299123904881" width="27.196495619524406" height="60" as="geometry" />
        </mxCell>
        <mxCell id="p7uoksNzp9pEg4KGuEPH-278" value="3" style="rounded=0;whiteSpace=wrap;html=1;verticalAlign=top;" vertex="1" parent="p7uoksNzp9pEg4KGuEPH-274">
          <mxGeometry x="81.5894868585732" width="27.196495619524406" height="60" as="geometry" />
        </mxCell>
        <mxCell id="p7uoksNzp9pEg4KGuEPH-279" value="4" style="rounded=0;whiteSpace=wrap;html=1;verticalAlign=top;" vertex="1" parent="p7uoksNzp9pEg4KGuEPH-274">
          <mxGeometry x="108.78598247809762" width="27.196495619524406" height="60" as="geometry" />
        </mxCell>
        <mxCell id="p7uoksNzp9pEg4KGuEPH-280" value="5" style="rounded=0;whiteSpace=wrap;html=1;verticalAlign=top;" vertex="1" parent="p7uoksNzp9pEg4KGuEPH-274">
          <mxGeometry x="135.98247809762202" width="27.196495619524406" height="60" as="geometry" />
        </mxCell>
        <mxCell id="p7uoksNzp9pEg4KGuEPH-281" value="7" style="rounded=0;whiteSpace=wrap;html=1;verticalAlign=top;" vertex="1" parent="p7uoksNzp9pEg4KGuEPH-274">
          <mxGeometry x="190.37546933667088" width="27.196495619524406" height="60" as="geometry" />
        </mxCell>
        <mxCell id="p7uoksNzp9pEg4KGuEPH-282" value="6" style="rounded=0;whiteSpace=wrap;html=1;verticalAlign=top;" vertex="1" parent="p7uoksNzp9pEg4KGuEPH-274">
          <mxGeometry x="163.1789737171464" width="27.196495619524406" height="60" as="geometry" />
        </mxCell>
        <mxCell id="p7uoksNzp9pEg4KGuEPH-283" value="8" style="rounded=0;whiteSpace=wrap;html=1;verticalAlign=top;" vertex="1" parent="p7uoksNzp9pEg4KGuEPH-274">
          <mxGeometry x="217.57196495619525" width="27.196495619524406" height="60" as="geometry" />
        </mxCell>
        <mxCell id="p7uoksNzp9pEg4KGuEPH-284" value="9" style="rounded=0;whiteSpace=wrap;html=1;verticalAlign=top;" vertex="1" parent="p7uoksNzp9pEg4KGuEPH-274">
          <mxGeometry x="244.76846057571962" width="27.196495619524406" height="60" as="geometry" />
        </mxCell>
        <mxCell id="p7uoksNzp9pEg4KGuEPH-285" value="A" style="rounded=0;whiteSpace=wrap;html=1;verticalAlign=top;" vertex="1" parent="p7uoksNzp9pEg4KGuEPH-274">
          <mxGeometry x="271.96495619524404" width="27.196495619524406" height="60" as="geometry" />
        </mxCell>
        <mxCell id="p7uoksNzp9pEg4KGuEPH-286" value="B" style="rounded=0;whiteSpace=wrap;html=1;verticalAlign=top;" vertex="1" parent="p7uoksNzp9pEg4KGuEPH-274">
          <mxGeometry x="299.16145181476844" width="27.196495619524406" height="60" as="geometry" />
        </mxCell>
        <mxCell id="p7uoksNzp9pEg4KGuEPH-287" value="C" style="rounded=0;whiteSpace=wrap;html=1;verticalAlign=top;" vertex="1" parent="p7uoksNzp9pEg4KGuEPH-274">
          <mxGeometry x="326.3579474342928" width="27.196495619524406" height="60" as="geometry" />
        </mxCell>
        <mxCell id="p7uoksNzp9pEg4KGuEPH-288" value="D" style="rounded=0;whiteSpace=wrap;html=1;verticalAlign=top;" vertex="1" parent="p7uoksNzp9pEg4KGuEPH-274">
          <mxGeometry x="353.55444305381707" width="27.196495619524406" height="60" as="geometry" />
        </mxCell>
        <mxCell id="p7uoksNzp9pEg4KGuEPH-289" value="E" style="rounded=0;whiteSpace=wrap;html=1;verticalAlign=top;" vertex="1" parent="p7uoksNzp9pEg4KGuEPH-274">
          <mxGeometry x="380.75093867334175" width="27.196495619524406" height="60" as="geometry" />
        </mxCell>
        <mxCell id="p7uoksNzp9pEg4KGuEPH-290" value="F&lt;br&gt;&lt;font color=&quot;#ff3333&quot;&gt;Hash G&lt;/font&gt;" style="rounded=0;whiteSpace=wrap;html=1;verticalAlign=top;" vertex="1" parent="p7uoksNzp9pEg4KGuEPH-274">
          <mxGeometry x="407.94743429286603" width="27.196495619524406" height="60" as="geometry" />
        </mxCell>
        <mxCell id="p7uoksNzp9pEg4KGuEPH-291" value="" style="rounded=0;whiteSpace=wrap;html=1;fillColor=#dae8fc;strokeColor=#6c8ebf;verticalAlign=middle;align=center;fontSize=25;" vertex="1" parent="p7uoksNzp9pEg4KGuEPH-274">
          <mxGeometry x="435.14127659574467" width="94.85872340425533" height="60" as="geometry" />
        </mxCell>
        <mxCell id="p7uoksNzp9pEg4KGuEPH-292" value="&lt;font style=&quot;font-size: 60px;&quot;&gt;6&lt;/font&gt;" style="edgeStyle=orthogonalEdgeStyle;rounded=0;orthogonalLoop=1;jettySize=auto;html=1;exitX=0.25;exitY=1;exitDx=0;exitDy=0;entryX=0.5;entryY=0;entryDx=0;entryDy=0;strokeWidth=3;fontSize=60;fontStyle=1" edge="1" parent="1" source="p7uoksNzp9pEg4KGuEPH-188" target="p7uoksNzp9pEg4KGuEPH-272">
          <mxGeometry relative="1" as="geometry" />
        </mxCell>
        <mxCell id="p7uoksNzp9pEg4KGuEPH-293" value="" style="group" vertex="1" connectable="0" parent="1">
          <mxGeometry x="750" y="1960" width="490" height="570" as="geometry" />
        </mxCell>
        <mxCell id="p7uoksNzp9pEg4KGuEPH-294" value="" style="ellipse;whiteSpace=wrap;html=1;aspect=fixed;" vertex="1" parent="p7uoksNzp9pEg4KGuEPH-293">
          <mxGeometry x="-70" y="-25" width="570" height="570" as="geometry" />
        </mxCell>
        <mxCell id="p7uoksNzp9pEg4KGuEPH-295" value="&lt;font style=&quot;font-size: 30px;&quot;&gt;Hash G&lt;/font&gt;" style="rounded=0;whiteSpace=wrap;html=1;fontStyle=1;fillColor=#f8cecc;strokeColor=#b85450;fontSize=30;" vertex="1" parent="p7uoksNzp9pEg4KGuEPH-293">
          <mxGeometry x="142.5" y="90" width="145" height="100" as="geometry" />
        </mxCell>
        <mxCell id="p7uoksNzp9pEg4KGuEPH-296" value="" style="group" vertex="1" connectable="0" parent="p7uoksNzp9pEg4KGuEPH-293">
          <mxGeometry x="-50" y="230" width="530" height="60" as="geometry" />
        </mxCell>
        <mxCell id="p7uoksNzp9pEg4KGuEPH-297" value="0&lt;br&gt;&lt;font color=&quot;#ff3333&quot;&gt;Hash H&lt;/font&gt;" style="rounded=0;whiteSpace=wrap;html=1;fontStyle=0;verticalAlign=top;" vertex="1" parent="p7uoksNzp9pEg4KGuEPH-296">
          <mxGeometry width="27.196495619524406" height="60" as="geometry" />
        </mxCell>
        <mxCell id="p7uoksNzp9pEg4KGuEPH-298" value="1" style="rounded=0;whiteSpace=wrap;html=1;fontStyle=0;verticalAlign=top;" vertex="1" parent="p7uoksNzp9pEg4KGuEPH-296">
          <mxGeometry x="27.196495619524406" width="27.196495619524406" height="60" as="geometry" />
        </mxCell>
        <mxCell id="p7uoksNzp9pEg4KGuEPH-299" value="2" style="rounded=0;whiteSpace=wrap;html=1;verticalAlign=top;" vertex="1" parent="p7uoksNzp9pEg4KGuEPH-296">
          <mxGeometry x="54.39299123904881" width="27.196495619524406" height="60" as="geometry" />
        </mxCell>
        <mxCell id="p7uoksNzp9pEg4KGuEPH-300" value="3" style="rounded=0;whiteSpace=wrap;html=1;verticalAlign=top;" vertex="1" parent="p7uoksNzp9pEg4KGuEPH-296">
          <mxGeometry x="81.5894868585732" width="27.196495619524406" height="60" as="geometry" />
        </mxCell>
        <mxCell id="p7uoksNzp9pEg4KGuEPH-301" value="4" style="rounded=0;whiteSpace=wrap;html=1;verticalAlign=top;" vertex="1" parent="p7uoksNzp9pEg4KGuEPH-296">
          <mxGeometry x="108.78598247809762" width="27.196495619524406" height="60" as="geometry" />
        </mxCell>
        <mxCell id="p7uoksNzp9pEg4KGuEPH-302" value="5" style="rounded=0;whiteSpace=wrap;html=1;verticalAlign=top;" vertex="1" parent="p7uoksNzp9pEg4KGuEPH-296">
          <mxGeometry x="135.98247809762202" width="27.196495619524406" height="60" as="geometry" />
        </mxCell>
        <mxCell id="p7uoksNzp9pEg4KGuEPH-303" value="7" style="rounded=0;whiteSpace=wrap;html=1;verticalAlign=top;" vertex="1" parent="p7uoksNzp9pEg4KGuEPH-296">
          <mxGeometry x="190.37546933667088" width="27.196495619524406" height="60" as="geometry" />
        </mxCell>
        <mxCell id="p7uoksNzp9pEg4KGuEPH-304" value="6" style="rounded=0;whiteSpace=wrap;html=1;verticalAlign=top;" vertex="1" parent="p7uoksNzp9pEg4KGuEPH-296">
          <mxGeometry x="163.1789737171464" width="27.196495619524406" height="60" as="geometry" />
        </mxCell>
        <mxCell id="p7uoksNzp9pEg4KGuEPH-305" value="8" style="rounded=0;whiteSpace=wrap;html=1;verticalAlign=top;" vertex="1" parent="p7uoksNzp9pEg4KGuEPH-296">
          <mxGeometry x="217.57196495619525" width="27.196495619524406" height="60" as="geometry" />
        </mxCell>
        <mxCell id="p7uoksNzp9pEg4KGuEPH-306" value="9" style="rounded=0;whiteSpace=wrap;html=1;verticalAlign=top;" vertex="1" parent="p7uoksNzp9pEg4KGuEPH-296">
          <mxGeometry x="244.76846057571962" width="27.196495619524406" height="60" as="geometry" />
        </mxCell>
        <mxCell id="p7uoksNzp9pEg4KGuEPH-307" value="A" style="rounded=0;whiteSpace=wrap;html=1;verticalAlign=top;" vertex="1" parent="p7uoksNzp9pEg4KGuEPH-296">
          <mxGeometry x="271.96495619524404" width="27.196495619524406" height="60" as="geometry" />
        </mxCell>
        <mxCell id="p7uoksNzp9pEg4KGuEPH-308" value="B" style="rounded=0;whiteSpace=wrap;html=1;verticalAlign=top;" vertex="1" parent="p7uoksNzp9pEg4KGuEPH-296">
          <mxGeometry x="299.16145181476844" width="27.196495619524406" height="60" as="geometry" />
        </mxCell>
        <mxCell id="p7uoksNzp9pEg4KGuEPH-309" value="C" style="rounded=0;whiteSpace=wrap;html=1;verticalAlign=top;" vertex="1" parent="p7uoksNzp9pEg4KGuEPH-296">
          <mxGeometry x="326.3579474342928" width="27.196495619524406" height="60" as="geometry" />
        </mxCell>
        <mxCell id="p7uoksNzp9pEg4KGuEPH-310" value="D" style="rounded=0;whiteSpace=wrap;html=1;verticalAlign=top;" vertex="1" parent="p7uoksNzp9pEg4KGuEPH-296">
          <mxGeometry x="353.55444305381707" width="27.196495619524406" height="60" as="geometry" />
        </mxCell>
        <mxCell id="p7uoksNzp9pEg4KGuEPH-311" value="E" style="rounded=0;whiteSpace=wrap;html=1;verticalAlign=top;" vertex="1" parent="p7uoksNzp9pEg4KGuEPH-296">
          <mxGeometry x="380.75093867334175" width="27.196495619524406" height="60" as="geometry" />
        </mxCell>
        <mxCell id="p7uoksNzp9pEg4KGuEPH-312" value="F" style="rounded=0;whiteSpace=wrap;html=1;verticalAlign=top;" vertex="1" parent="p7uoksNzp9pEg4KGuEPH-296">
          <mxGeometry x="407.94743429286603" width="27.196495619524406" height="60" as="geometry" />
        </mxCell>
        <mxCell id="p7uoksNzp9pEg4KGuEPH-313" value="" style="rounded=0;whiteSpace=wrap;html=1;fillColor=#dae8fc;strokeColor=#6c8ebf;verticalAlign=middle;align=center;fontSize=25;" vertex="1" parent="p7uoksNzp9pEg4KGuEPH-296">
          <mxGeometry x="435.14127659574467" width="94.85872340425533" height="60" as="geometry" />
        </mxCell>
        <mxCell id="p7uoksNzp9pEg4KGuEPH-314" style="edgeStyle=orthogonalEdgeStyle;rounded=0;orthogonalLoop=1;jettySize=auto;html=1;exitX=0.5;exitY=1;exitDx=0;exitDy=0;strokeWidth=3;" edge="1" parent="1" source="p7uoksNzp9pEg4KGuEPH-290" target="p7uoksNzp9pEg4KGuEPH-294">
          <mxGeometry relative="1" as="geometry" />
        </mxCell>
        <mxCell id="p7uoksNzp9pEg4KGuEPH-428" value="&lt;font style=&quot;font-size: 60px;&quot;&gt;F&lt;/font&gt;" style="edgeLabel;html=1;align=center;verticalAlign=middle;resizable=0;points=[];fontSize=60;fontStyle=1" vertex="1" connectable="0" parent="p7uoksNzp9pEg4KGuEPH-314">
          <mxGeometry x="-0.0242" y="-2" relative="1" as="geometry">
            <mxPoint as="offset" />
          </mxGeometry>
        </mxCell>
        <mxCell id="p7uoksNzp9pEg4KGuEPH-315" value="" style="group" vertex="1" connectable="0" parent="1">
          <mxGeometry x="310" y="2565" width="490" height="570" as="geometry" />
        </mxCell>
        <mxCell id="p7uoksNzp9pEg4KGuEPH-316" value="" style="ellipse;whiteSpace=wrap;html=1;aspect=fixed;" vertex="1" parent="p7uoksNzp9pEg4KGuEPH-315">
          <mxGeometry x="-70" y="-25" width="570" height="570" as="geometry" />
        </mxCell>
        <mxCell id="p7uoksNzp9pEg4KGuEPH-317" value="&lt;font style=&quot;font-size: 30px;&quot;&gt;Hash H&lt;/font&gt;" style="rounded=0;whiteSpace=wrap;html=1;fontStyle=1;fillColor=#f8cecc;strokeColor=#b85450;fontSize=30;" vertex="1" parent="p7uoksNzp9pEg4KGuEPH-315">
          <mxGeometry x="142.5" y="90" width="145" height="100" as="geometry" />
        </mxCell>
        <mxCell id="p7uoksNzp9pEg4KGuEPH-318" value="" style="group" vertex="1" connectable="0" parent="p7uoksNzp9pEg4KGuEPH-315">
          <mxGeometry x="-50" y="230" width="530" height="60" as="geometry" />
        </mxCell>
        <mxCell id="p7uoksNzp9pEg4KGuEPH-319" value="0" style="rounded=0;whiteSpace=wrap;html=1;fontStyle=0;verticalAlign=top;" vertex="1" parent="p7uoksNzp9pEg4KGuEPH-318">
          <mxGeometry width="27.196495619524406" height="60" as="geometry" />
        </mxCell>
        <mxCell id="p7uoksNzp9pEg4KGuEPH-320" value="1" style="rounded=0;whiteSpace=wrap;html=1;fontStyle=0;verticalAlign=top;" vertex="1" parent="p7uoksNzp9pEg4KGuEPH-318">
          <mxGeometry x="27.196495619524406" width="27.196495619524406" height="60" as="geometry" />
        </mxCell>
        <mxCell id="p7uoksNzp9pEg4KGuEPH-321" value="2" style="rounded=0;whiteSpace=wrap;html=1;verticalAlign=top;" vertex="1" parent="p7uoksNzp9pEg4KGuEPH-318">
          <mxGeometry x="54.39299123904881" width="27.196495619524406" height="60" as="geometry" />
        </mxCell>
        <mxCell id="p7uoksNzp9pEg4KGuEPH-322" value="3" style="rounded=0;whiteSpace=wrap;html=1;verticalAlign=top;" vertex="1" parent="p7uoksNzp9pEg4KGuEPH-318">
          <mxGeometry x="81.5894868585732" width="27.196495619524406" height="60" as="geometry" />
        </mxCell>
        <mxCell id="p7uoksNzp9pEg4KGuEPH-323" value="4" style="rounded=0;whiteSpace=wrap;html=1;verticalAlign=top;" vertex="1" parent="p7uoksNzp9pEg4KGuEPH-318">
          <mxGeometry x="108.78598247809762" width="27.196495619524406" height="60" as="geometry" />
        </mxCell>
        <mxCell id="p7uoksNzp9pEg4KGuEPH-324" value="5" style="rounded=0;whiteSpace=wrap;html=1;verticalAlign=top;" vertex="1" parent="p7uoksNzp9pEg4KGuEPH-318">
          <mxGeometry x="135.98247809762202" width="27.196495619524406" height="60" as="geometry" />
        </mxCell>
        <mxCell id="p7uoksNzp9pEg4KGuEPH-325" value="7" style="rounded=0;whiteSpace=wrap;html=1;verticalAlign=top;" vertex="1" parent="p7uoksNzp9pEg4KGuEPH-318">
          <mxGeometry x="190.37546933667088" width="27.196495619524406" height="60" as="geometry" />
        </mxCell>
        <mxCell id="p7uoksNzp9pEg4KGuEPH-326" value="6" style="rounded=0;whiteSpace=wrap;html=1;verticalAlign=top;" vertex="1" parent="p7uoksNzp9pEg4KGuEPH-318">
          <mxGeometry x="163.1789737171464" width="27.196495619524406" height="60" as="geometry" />
        </mxCell>
        <mxCell id="p7uoksNzp9pEg4KGuEPH-327" value="8" style="rounded=0;whiteSpace=wrap;html=1;verticalAlign=top;" vertex="1" parent="p7uoksNzp9pEg4KGuEPH-318">
          <mxGeometry x="217.57196495619525" width="27.196495619524406" height="60" as="geometry" />
        </mxCell>
        <mxCell id="p7uoksNzp9pEg4KGuEPH-328" value="9" style="rounded=0;whiteSpace=wrap;html=1;verticalAlign=top;" vertex="1" parent="p7uoksNzp9pEg4KGuEPH-318">
          <mxGeometry x="244.76846057571962" width="27.196495619524406" height="60" as="geometry" />
        </mxCell>
        <mxCell id="p7uoksNzp9pEg4KGuEPH-329" value="A" style="rounded=0;whiteSpace=wrap;html=1;verticalAlign=top;" vertex="1" parent="p7uoksNzp9pEg4KGuEPH-318">
          <mxGeometry x="271.96495619524404" width="27.196495619524406" height="60" as="geometry" />
        </mxCell>
        <mxCell id="p7uoksNzp9pEg4KGuEPH-330" value="B" style="rounded=0;whiteSpace=wrap;html=1;verticalAlign=top;" vertex="1" parent="p7uoksNzp9pEg4KGuEPH-318">
          <mxGeometry x="299.16145181476844" width="27.196495619524406" height="60" as="geometry" />
        </mxCell>
        <mxCell id="p7uoksNzp9pEg4KGuEPH-331" value="C" style="rounded=0;whiteSpace=wrap;html=1;verticalAlign=top;" vertex="1" parent="p7uoksNzp9pEg4KGuEPH-318">
          <mxGeometry x="326.3579474342928" width="27.196495619524406" height="60" as="geometry" />
        </mxCell>
        <mxCell id="p7uoksNzp9pEg4KGuEPH-332" value="D" style="rounded=0;whiteSpace=wrap;html=1;verticalAlign=top;" vertex="1" parent="p7uoksNzp9pEg4KGuEPH-318">
          <mxGeometry x="353.55444305381707" width="27.196495619524406" height="60" as="geometry" />
        </mxCell>
        <mxCell id="p7uoksNzp9pEg4KGuEPH-333" value="E" style="rounded=0;whiteSpace=wrap;html=1;verticalAlign=top;" vertex="1" parent="p7uoksNzp9pEg4KGuEPH-318">
          <mxGeometry x="380.75093867334175" width="27.196495619524406" height="60" as="geometry" />
        </mxCell>
        <mxCell id="p7uoksNzp9pEg4KGuEPH-334" value="F" style="rounded=0;whiteSpace=wrap;html=1;verticalAlign=top;" vertex="1" parent="p7uoksNzp9pEg4KGuEPH-318">
          <mxGeometry x="407.94743429286603" width="27.196495619524406" height="60" as="geometry" />
        </mxCell>
        <mxCell id="p7uoksNzp9pEg4KGuEPH-335" value="&lt;b style=&quot;font-size: 25px;&quot;&gt;&lt;font style=&quot;font-size: 25px;&quot;&gt;horse&lt;/font&gt;&lt;/b&gt;" style="rounded=0;whiteSpace=wrap;html=1;fillColor=#dae8fc;strokeColor=#6c8ebf;verticalAlign=middle;align=center;fontSize=25;" vertex="1" parent="p7uoksNzp9pEg4KGuEPH-318">
          <mxGeometry x="435.14127659574467" width="94.85872340425533" height="60" as="geometry" />
        </mxCell>
        <mxCell id="p7uoksNzp9pEg4KGuEPH-336" style="edgeStyle=orthogonalEdgeStyle;rounded=0;orthogonalLoop=1;jettySize=auto;html=1;exitX=0.5;exitY=1;exitDx=0;exitDy=0;strokeWidth=3;" edge="1" parent="1" source="p7uoksNzp9pEg4KGuEPH-297" target="p7uoksNzp9pEg4KGuEPH-316">
          <mxGeometry relative="1" as="geometry" />
        </mxCell>
        <mxCell id="p7uoksNzp9pEg4KGuEPH-429" value="&lt;font style=&quot;font-size: 60px;&quot;&gt;0&lt;/font&gt;" style="edgeLabel;html=1;align=center;verticalAlign=middle;resizable=0;points=[];fontSize=60;fontStyle=1" vertex="1" connectable="0" parent="p7uoksNzp9pEg4KGuEPH-336">
          <mxGeometry x="0.2637" y="-1" relative="1" as="geometry">
            <mxPoint as="offset" />
          </mxGeometry>
        </mxCell>
        <mxCell id="p7uoksNzp9pEg4KGuEPH-337" value="" style="group" vertex="1" connectable="0" parent="1">
          <mxGeometry x="1759.16" y="1145" width="490" height="570" as="geometry" />
        </mxCell>
        <mxCell id="p7uoksNzp9pEg4KGuEPH-338" value="" style="ellipse;whiteSpace=wrap;html=1;aspect=fixed;" vertex="1" parent="p7uoksNzp9pEg4KGuEPH-337">
          <mxGeometry x="-70" y="-25" width="570" height="570" as="geometry" />
        </mxCell>
        <mxCell id="p7uoksNzp9pEg4KGuEPH-339" value="&lt;font style=&quot;font-size: 30px;&quot;&gt;Hash I&lt;/font&gt;" style="rounded=0;whiteSpace=wrap;html=1;fontStyle=1;fillColor=#f8cecc;strokeColor=#b85450;fontSize=30;" vertex="1" parent="p7uoksNzp9pEg4KGuEPH-337">
          <mxGeometry x="142.5" y="90" width="145" height="100" as="geometry" />
        </mxCell>
        <mxCell id="p7uoksNzp9pEg4KGuEPH-340" value="" style="group" vertex="1" connectable="0" parent="p7uoksNzp9pEg4KGuEPH-337">
          <mxGeometry x="-50" y="230" width="530" height="60" as="geometry" />
        </mxCell>
        <mxCell id="p7uoksNzp9pEg4KGuEPH-341" value="0" style="rounded=0;whiteSpace=wrap;html=1;fontStyle=0;verticalAlign=top;" vertex="1" parent="p7uoksNzp9pEg4KGuEPH-340">
          <mxGeometry width="27.196495619524406" height="60" as="geometry" />
        </mxCell>
        <mxCell id="p7uoksNzp9pEg4KGuEPH-342" value="1" style="rounded=0;whiteSpace=wrap;html=1;fontStyle=0;verticalAlign=top;" vertex="1" parent="p7uoksNzp9pEg4KGuEPH-340">
          <mxGeometry x="27.196495619524406" width="27.196495619524406" height="60" as="geometry" />
        </mxCell>
        <mxCell id="p7uoksNzp9pEg4KGuEPH-343" value="2" style="rounded=0;whiteSpace=wrap;html=1;verticalAlign=top;" vertex="1" parent="p7uoksNzp9pEg4KGuEPH-340">
          <mxGeometry x="54.39299123904881" width="27.196495619524406" height="60" as="geometry" />
        </mxCell>
        <mxCell id="p7uoksNzp9pEg4KGuEPH-344" value="3" style="rounded=0;whiteSpace=wrap;html=1;verticalAlign=top;" vertex="1" parent="p7uoksNzp9pEg4KGuEPH-340">
          <mxGeometry x="81.5894868585732" width="27.196495619524406" height="60" as="geometry" />
        </mxCell>
        <mxCell id="p7uoksNzp9pEg4KGuEPH-345" value="4" style="rounded=0;whiteSpace=wrap;html=1;verticalAlign=top;" vertex="1" parent="p7uoksNzp9pEg4KGuEPH-340">
          <mxGeometry x="108.78598247809762" width="27.196495619524406" height="60" as="geometry" />
        </mxCell>
        <mxCell id="p7uoksNzp9pEg4KGuEPH-346" value="5" style="rounded=0;whiteSpace=wrap;html=1;verticalAlign=top;" vertex="1" parent="p7uoksNzp9pEg4KGuEPH-340">
          <mxGeometry x="135.98247809762202" width="27.196495619524406" height="60" as="geometry" />
        </mxCell>
        <mxCell id="p7uoksNzp9pEg4KGuEPH-347" value="7" style="rounded=0;whiteSpace=wrap;html=1;verticalAlign=top;" vertex="1" parent="p7uoksNzp9pEg4KGuEPH-340">
          <mxGeometry x="190.37546933667088" width="27.196495619524406" height="60" as="geometry" />
        </mxCell>
        <mxCell id="p7uoksNzp9pEg4KGuEPH-348" value="6" style="rounded=0;whiteSpace=wrap;html=1;verticalAlign=top;" vertex="1" parent="p7uoksNzp9pEg4KGuEPH-340">
          <mxGeometry x="163.1789737171464" width="27.196495619524406" height="60" as="geometry" />
        </mxCell>
        <mxCell id="p7uoksNzp9pEg4KGuEPH-349" value="8" style="rounded=0;whiteSpace=wrap;html=1;verticalAlign=top;" vertex="1" parent="p7uoksNzp9pEg4KGuEPH-340">
          <mxGeometry x="217.57196495619525" width="27.196495619524406" height="60" as="geometry" />
        </mxCell>
        <mxCell id="p7uoksNzp9pEg4KGuEPH-350" value="9" style="rounded=0;whiteSpace=wrap;html=1;verticalAlign=top;" vertex="1" parent="p7uoksNzp9pEg4KGuEPH-340">
          <mxGeometry x="244.76846057571962" width="27.196495619524406" height="60" as="geometry" />
        </mxCell>
        <mxCell id="p7uoksNzp9pEg4KGuEPH-351" value="A" style="rounded=0;whiteSpace=wrap;html=1;verticalAlign=top;" vertex="1" parent="p7uoksNzp9pEg4KGuEPH-340">
          <mxGeometry x="271.96495619524404" width="27.196495619524406" height="60" as="geometry" />
        </mxCell>
        <mxCell id="p7uoksNzp9pEg4KGuEPH-352" value="B&lt;br&gt;&lt;font color=&quot;#ff3333&quot;&gt;Hash J&lt;/font&gt;" style="rounded=0;whiteSpace=wrap;html=1;verticalAlign=top;" vertex="1" parent="p7uoksNzp9pEg4KGuEPH-340">
          <mxGeometry x="299.16145181476844" width="27.196495619524406" height="60" as="geometry" />
        </mxCell>
        <mxCell id="p7uoksNzp9pEg4KGuEPH-353" value="C" style="rounded=0;whiteSpace=wrap;html=1;verticalAlign=top;" vertex="1" parent="p7uoksNzp9pEg4KGuEPH-340">
          <mxGeometry x="326.3579474342928" width="27.196495619524406" height="60" as="geometry" />
        </mxCell>
        <mxCell id="p7uoksNzp9pEg4KGuEPH-354" value="D" style="rounded=0;whiteSpace=wrap;html=1;verticalAlign=top;" vertex="1" parent="p7uoksNzp9pEg4KGuEPH-340">
          <mxGeometry x="353.55444305381707" width="27.196495619524406" height="60" as="geometry" />
        </mxCell>
        <mxCell id="p7uoksNzp9pEg4KGuEPH-355" value="E" style="rounded=0;whiteSpace=wrap;html=1;verticalAlign=top;" vertex="1" parent="p7uoksNzp9pEg4KGuEPH-340">
          <mxGeometry x="380.75093867334175" width="27.196495619524406" height="60" as="geometry" />
        </mxCell>
        <mxCell id="p7uoksNzp9pEg4KGuEPH-356" value="F" style="rounded=0;whiteSpace=wrap;html=1;verticalAlign=top;" vertex="1" parent="p7uoksNzp9pEg4KGuEPH-340">
          <mxGeometry x="407.94743429286603" width="27.196495619524406" height="60" as="geometry" />
        </mxCell>
        <mxCell id="p7uoksNzp9pEg4KGuEPH-357" value="" style="rounded=0;whiteSpace=wrap;html=1;fillColor=#dae8fc;strokeColor=#6c8ebf;verticalAlign=middle;align=center;fontSize=25;" vertex="1" parent="p7uoksNzp9pEg4KGuEPH-340">
          <mxGeometry x="435.14127659574467" width="94.85872340425533" height="60" as="geometry" />
        </mxCell>
        <mxCell id="p7uoksNzp9pEg4KGuEPH-358" style="edgeStyle=orthogonalEdgeStyle;rounded=0;orthogonalLoop=1;jettySize=auto;html=1;exitX=0.5;exitY=1;exitDx=0;exitDy=0;strokeWidth=3;" edge="1" parent="1" source="p7uoksNzp9pEg4KGuEPH-212" target="p7uoksNzp9pEg4KGuEPH-338">
          <mxGeometry relative="1" as="geometry" />
        </mxCell>
        <mxCell id="p7uoksNzp9pEg4KGuEPH-430" value="&lt;font style=&quot;font-size: 60px;&quot;&gt;A&lt;/font&gt;" style="edgeLabel;html=1;align=center;verticalAlign=middle;resizable=0;points=[];fontSize=60;fontStyle=1" vertex="1" connectable="0" parent="p7uoksNzp9pEg4KGuEPH-358">
          <mxGeometry x="0.3708" y="-2" relative="1" as="geometry">
            <mxPoint y="1" as="offset" />
          </mxGeometry>
        </mxCell>
        <mxCell id="p7uoksNzp9pEg4KGuEPH-359" value="" style="group" vertex="1" connectable="0" parent="1">
          <mxGeometry x="1930" y="1875" width="490" height="570" as="geometry" />
        </mxCell>
        <mxCell id="p7uoksNzp9pEg4KGuEPH-360" value="" style="ellipse;whiteSpace=wrap;html=1;aspect=fixed;" vertex="1" parent="p7uoksNzp9pEg4KGuEPH-359">
          <mxGeometry x="-70" y="-25" width="570" height="570" as="geometry" />
        </mxCell>
        <mxCell id="p7uoksNzp9pEg4KGuEPH-361" value="&lt;font style=&quot;font-size: 30px;&quot;&gt;Hash J&lt;/font&gt;" style="rounded=0;whiteSpace=wrap;html=1;fontStyle=1;fillColor=#f8cecc;strokeColor=#b85450;fontSize=30;" vertex="1" parent="p7uoksNzp9pEg4KGuEPH-359">
          <mxGeometry x="142.5" y="90" width="145" height="100" as="geometry" />
        </mxCell>
        <mxCell id="p7uoksNzp9pEg4KGuEPH-362" value="" style="group" vertex="1" connectable="0" parent="p7uoksNzp9pEg4KGuEPH-359">
          <mxGeometry x="-50" y="230" width="530" height="60" as="geometry" />
        </mxCell>
        <mxCell id="p7uoksNzp9pEg4KGuEPH-363" value="0" style="rounded=0;whiteSpace=wrap;html=1;fontStyle=0;verticalAlign=top;" vertex="1" parent="p7uoksNzp9pEg4KGuEPH-362">
          <mxGeometry width="27.196495619524406" height="60" as="geometry" />
        </mxCell>
        <mxCell id="p7uoksNzp9pEg4KGuEPH-364" value="1" style="rounded=0;whiteSpace=wrap;html=1;fontStyle=0;verticalAlign=top;" vertex="1" parent="p7uoksNzp9pEg4KGuEPH-362">
          <mxGeometry x="27.196495619524406" width="27.196495619524406" height="60" as="geometry" />
        </mxCell>
        <mxCell id="p7uoksNzp9pEg4KGuEPH-365" value="2" style="rounded=0;whiteSpace=wrap;html=1;verticalAlign=top;" vertex="1" parent="p7uoksNzp9pEg4KGuEPH-362">
          <mxGeometry x="54.39299123904881" width="27.196495619524406" height="60" as="geometry" />
        </mxCell>
        <mxCell id="p7uoksNzp9pEg4KGuEPH-366" value="3" style="rounded=0;whiteSpace=wrap;html=1;verticalAlign=top;" vertex="1" parent="p7uoksNzp9pEg4KGuEPH-362">
          <mxGeometry x="81.5894868585732" width="27.196495619524406" height="60" as="geometry" />
        </mxCell>
        <mxCell id="p7uoksNzp9pEg4KGuEPH-367" value="4" style="rounded=0;whiteSpace=wrap;html=1;verticalAlign=top;" vertex="1" parent="p7uoksNzp9pEg4KGuEPH-362">
          <mxGeometry x="108.78598247809762" width="27.196495619524406" height="60" as="geometry" />
        </mxCell>
        <mxCell id="p7uoksNzp9pEg4KGuEPH-368" value="5" style="rounded=0;whiteSpace=wrap;html=1;verticalAlign=top;" vertex="1" parent="p7uoksNzp9pEg4KGuEPH-362">
          <mxGeometry x="135.98247809762202" width="27.196495619524406" height="60" as="geometry" />
        </mxCell>
        <mxCell id="p7uoksNzp9pEg4KGuEPH-369" value="7" style="rounded=0;whiteSpace=wrap;html=1;verticalAlign=top;" vertex="1" parent="p7uoksNzp9pEg4KGuEPH-362">
          <mxGeometry x="190.37546933667088" width="27.196495619524406" height="60" as="geometry" />
        </mxCell>
        <mxCell id="p7uoksNzp9pEg4KGuEPH-370" value="6" style="rounded=0;whiteSpace=wrap;html=1;verticalAlign=top;" vertex="1" parent="p7uoksNzp9pEg4KGuEPH-362">
          <mxGeometry x="163.1789737171464" width="27.196495619524406" height="60" as="geometry" />
        </mxCell>
        <mxCell id="p7uoksNzp9pEg4KGuEPH-371" value="8&lt;br&gt;&lt;font color=&quot;#ff3333&quot;&gt;Hash K&lt;/font&gt;" style="rounded=0;whiteSpace=wrap;html=1;verticalAlign=top;" vertex="1" parent="p7uoksNzp9pEg4KGuEPH-362">
          <mxGeometry x="217.57196495619525" width="27.196495619524406" height="60" as="geometry" />
        </mxCell>
        <mxCell id="p7uoksNzp9pEg4KGuEPH-372" value="9" style="rounded=0;whiteSpace=wrap;html=1;verticalAlign=top;" vertex="1" parent="p7uoksNzp9pEg4KGuEPH-362">
          <mxGeometry x="244.76846057571962" width="27.196495619524406" height="60" as="geometry" />
        </mxCell>
        <mxCell id="p7uoksNzp9pEg4KGuEPH-373" value="A" style="rounded=0;whiteSpace=wrap;html=1;verticalAlign=top;" vertex="1" parent="p7uoksNzp9pEg4KGuEPH-362">
          <mxGeometry x="271.96495619524404" width="27.196495619524406" height="60" as="geometry" />
        </mxCell>
        <mxCell id="p7uoksNzp9pEg4KGuEPH-374" value="B" style="rounded=0;whiteSpace=wrap;html=1;verticalAlign=top;" vertex="1" parent="p7uoksNzp9pEg4KGuEPH-362">
          <mxGeometry x="299.16145181476844" width="27.196495619524406" height="60" as="geometry" />
        </mxCell>
        <mxCell id="p7uoksNzp9pEg4KGuEPH-375" value="C" style="rounded=0;whiteSpace=wrap;html=1;verticalAlign=top;" vertex="1" parent="p7uoksNzp9pEg4KGuEPH-362">
          <mxGeometry x="326.3579474342928" width="27.196495619524406" height="60" as="geometry" />
        </mxCell>
        <mxCell id="p7uoksNzp9pEg4KGuEPH-376" value="D" style="rounded=0;whiteSpace=wrap;html=1;verticalAlign=top;" vertex="1" parent="p7uoksNzp9pEg4KGuEPH-362">
          <mxGeometry x="353.55444305381707" width="27.196495619524406" height="60" as="geometry" />
        </mxCell>
        <mxCell id="p7uoksNzp9pEg4KGuEPH-377" value="E&lt;br&gt;&lt;font color=&quot;#ff3333&quot;&gt;Hash L&lt;/font&gt;" style="rounded=0;whiteSpace=wrap;html=1;verticalAlign=top;" vertex="1" parent="p7uoksNzp9pEg4KGuEPH-362">
          <mxGeometry x="380.75093867334175" width="27.196495619524406" height="60" as="geometry" />
        </mxCell>
        <mxCell id="p7uoksNzp9pEg4KGuEPH-378" value="F" style="rounded=0;whiteSpace=wrap;html=1;verticalAlign=top;" vertex="1" parent="p7uoksNzp9pEg4KGuEPH-362">
          <mxGeometry x="407.94743429286603" width="27.196495619524406" height="60" as="geometry" />
        </mxCell>
        <mxCell id="p7uoksNzp9pEg4KGuEPH-379" value="" style="rounded=0;whiteSpace=wrap;html=1;fillColor=#dae8fc;strokeColor=#6c8ebf;verticalAlign=middle;align=center;fontSize=25;" vertex="1" parent="p7uoksNzp9pEg4KGuEPH-362">
          <mxGeometry x="435.14127659574467" width="94.85872340425533" height="60" as="geometry" />
        </mxCell>
        <mxCell id="p7uoksNzp9pEg4KGuEPH-381" style="edgeStyle=orthogonalEdgeStyle;rounded=0;orthogonalLoop=1;jettySize=auto;html=1;exitX=0.5;exitY=1;exitDx=0;exitDy=0;entryX=0.5;entryY=0;entryDx=0;entryDy=0;strokeWidth=3;" edge="1" parent="1" source="p7uoksNzp9pEg4KGuEPH-352" target="p7uoksNzp9pEg4KGuEPH-360">
          <mxGeometry relative="1" as="geometry" />
        </mxCell>
        <mxCell id="p7uoksNzp9pEg4KGuEPH-431" value="&lt;font style=&quot;font-size: 60px;&quot;&gt;B&lt;/font&gt;" style="edgeLabel;html=1;align=center;verticalAlign=middle;resizable=0;points=[];fontSize=60;fontStyle=1" vertex="1" connectable="0" parent="p7uoksNzp9pEg4KGuEPH-381">
          <mxGeometry x="0.6826" y="-2" relative="1" as="geometry">
            <mxPoint as="offset" />
          </mxGeometry>
        </mxCell>
        <mxCell id="p7uoksNzp9pEg4KGuEPH-382" value="" style="group" vertex="1" connectable="0" parent="1">
          <mxGeometry x="1670" y="2585" width="490" height="570" as="geometry" />
        </mxCell>
        <mxCell id="p7uoksNzp9pEg4KGuEPH-383" value="" style="ellipse;whiteSpace=wrap;html=1;aspect=fixed;" vertex="1" parent="p7uoksNzp9pEg4KGuEPH-382">
          <mxGeometry x="-70" y="-25" width="570" height="570" as="geometry" />
        </mxCell>
        <mxCell id="p7uoksNzp9pEg4KGuEPH-384" value="&lt;font style=&quot;font-size: 30px;&quot;&gt;Hash K&lt;/font&gt;" style="rounded=0;whiteSpace=wrap;html=1;fontStyle=1;fillColor=#f8cecc;strokeColor=#b85450;fontSize=30;" vertex="1" parent="p7uoksNzp9pEg4KGuEPH-382">
          <mxGeometry x="142.5" y="90" width="145" height="100" as="geometry" />
        </mxCell>
        <mxCell id="p7uoksNzp9pEg4KGuEPH-385" value="" style="group" vertex="1" connectable="0" parent="p7uoksNzp9pEg4KGuEPH-382">
          <mxGeometry x="-50" y="230" width="530" height="60" as="geometry" />
        </mxCell>
        <mxCell id="p7uoksNzp9pEg4KGuEPH-386" value="0" style="rounded=0;whiteSpace=wrap;html=1;fontStyle=0;verticalAlign=top;" vertex="1" parent="p7uoksNzp9pEg4KGuEPH-385">
          <mxGeometry width="27.196495619524406" height="60" as="geometry" />
        </mxCell>
        <mxCell id="p7uoksNzp9pEg4KGuEPH-387" value="1" style="rounded=0;whiteSpace=wrap;html=1;fontStyle=0;verticalAlign=top;" vertex="1" parent="p7uoksNzp9pEg4KGuEPH-385">
          <mxGeometry x="27.196495619524406" width="27.196495619524406" height="60" as="geometry" />
        </mxCell>
        <mxCell id="p7uoksNzp9pEg4KGuEPH-388" value="2" style="rounded=0;whiteSpace=wrap;html=1;verticalAlign=top;" vertex="1" parent="p7uoksNzp9pEg4KGuEPH-385">
          <mxGeometry x="54.39299123904881" width="27.196495619524406" height="60" as="geometry" />
        </mxCell>
        <mxCell id="p7uoksNzp9pEg4KGuEPH-389" value="3" style="rounded=0;whiteSpace=wrap;html=1;verticalAlign=top;" vertex="1" parent="p7uoksNzp9pEg4KGuEPH-385">
          <mxGeometry x="81.5894868585732" width="27.196495619524406" height="60" as="geometry" />
        </mxCell>
        <mxCell id="p7uoksNzp9pEg4KGuEPH-390" value="4" style="rounded=0;whiteSpace=wrap;html=1;verticalAlign=top;" vertex="1" parent="p7uoksNzp9pEg4KGuEPH-385">
          <mxGeometry x="108.78598247809762" width="27.196495619524406" height="60" as="geometry" />
        </mxCell>
        <mxCell id="p7uoksNzp9pEg4KGuEPH-391" value="5" style="rounded=0;whiteSpace=wrap;html=1;verticalAlign=top;" vertex="1" parent="p7uoksNzp9pEg4KGuEPH-385">
          <mxGeometry x="135.98247809762202" width="27.196495619524406" height="60" as="geometry" />
        </mxCell>
        <mxCell id="p7uoksNzp9pEg4KGuEPH-392" value="7" style="rounded=0;whiteSpace=wrap;html=1;verticalAlign=top;" vertex="1" parent="p7uoksNzp9pEg4KGuEPH-385">
          <mxGeometry x="190.37546933667088" width="27.196495619524406" height="60" as="geometry" />
        </mxCell>
        <mxCell id="p7uoksNzp9pEg4KGuEPH-393" value="6" style="rounded=0;whiteSpace=wrap;html=1;verticalAlign=top;" vertex="1" parent="p7uoksNzp9pEg4KGuEPH-385">
          <mxGeometry x="163.1789737171464" width="27.196495619524406" height="60" as="geometry" />
        </mxCell>
        <mxCell id="p7uoksNzp9pEg4KGuEPH-394" value="8" style="rounded=0;whiteSpace=wrap;html=1;verticalAlign=top;" vertex="1" parent="p7uoksNzp9pEg4KGuEPH-385">
          <mxGeometry x="217.57196495619525" width="27.196495619524406" height="60" as="geometry" />
        </mxCell>
        <mxCell id="p7uoksNzp9pEg4KGuEPH-395" value="9" style="rounded=0;whiteSpace=wrap;html=1;verticalAlign=top;" vertex="1" parent="p7uoksNzp9pEg4KGuEPH-385">
          <mxGeometry x="244.76846057571962" width="27.196495619524406" height="60" as="geometry" />
        </mxCell>
        <mxCell id="p7uoksNzp9pEg4KGuEPH-396" value="A" style="rounded=0;whiteSpace=wrap;html=1;verticalAlign=top;" vertex="1" parent="p7uoksNzp9pEg4KGuEPH-385">
          <mxGeometry x="271.96495619524404" width="27.196495619524406" height="60" as="geometry" />
        </mxCell>
        <mxCell id="p7uoksNzp9pEg4KGuEPH-397" value="B" style="rounded=0;whiteSpace=wrap;html=1;verticalAlign=top;" vertex="1" parent="p7uoksNzp9pEg4KGuEPH-385">
          <mxGeometry x="299.16145181476844" width="27.196495619524406" height="60" as="geometry" />
        </mxCell>
        <mxCell id="p7uoksNzp9pEg4KGuEPH-398" value="C" style="rounded=0;whiteSpace=wrap;html=1;verticalAlign=top;" vertex="1" parent="p7uoksNzp9pEg4KGuEPH-385">
          <mxGeometry x="326.3579474342928" width="27.196495619524406" height="60" as="geometry" />
        </mxCell>
        <mxCell id="p7uoksNzp9pEg4KGuEPH-399" value="D" style="rounded=0;whiteSpace=wrap;html=1;verticalAlign=top;" vertex="1" parent="p7uoksNzp9pEg4KGuEPH-385">
          <mxGeometry x="353.55444305381707" width="27.196495619524406" height="60" as="geometry" />
        </mxCell>
        <mxCell id="p7uoksNzp9pEg4KGuEPH-400" value="E" style="rounded=0;whiteSpace=wrap;html=1;verticalAlign=top;" vertex="1" parent="p7uoksNzp9pEg4KGuEPH-385">
          <mxGeometry x="380.75093867334175" width="27.196495619524406" height="60" as="geometry" />
        </mxCell>
        <mxCell id="p7uoksNzp9pEg4KGuEPH-401" value="F" style="rounded=0;whiteSpace=wrap;html=1;verticalAlign=top;" vertex="1" parent="p7uoksNzp9pEg4KGuEPH-385">
          <mxGeometry x="407.94743429286603" width="27.196495619524406" height="60" as="geometry" />
        </mxCell>
        <mxCell id="p7uoksNzp9pEg4KGuEPH-402" value="&lt;b style=&quot;font-size: 25px;&quot;&gt;&lt;font style=&quot;font-size: 25px;&quot;&gt;dog&lt;/font&gt;&lt;/b&gt;" style="rounded=0;whiteSpace=wrap;html=1;fillColor=#dae8fc;strokeColor=#6c8ebf;verticalAlign=middle;align=center;fontSize=25;" vertex="1" parent="p7uoksNzp9pEg4KGuEPH-385">
          <mxGeometry x="435.14127659574467" width="94.85872340425533" height="60" as="geometry" />
        </mxCell>
        <mxCell id="p7uoksNzp9pEg4KGuEPH-403" value="" style="group" vertex="1" connectable="0" parent="1">
          <mxGeometry x="2410" y="2555" width="490" height="570" as="geometry" />
        </mxCell>
        <mxCell id="p7uoksNzp9pEg4KGuEPH-404" value="" style="ellipse;whiteSpace=wrap;html=1;aspect=fixed;" vertex="1" parent="p7uoksNzp9pEg4KGuEPH-403">
          <mxGeometry x="-70" y="-25" width="570" height="570" as="geometry" />
        </mxCell>
        <mxCell id="p7uoksNzp9pEg4KGuEPH-405" value="&lt;font style=&quot;font-size: 30px;&quot;&gt;Hash L&lt;/font&gt;" style="rounded=0;whiteSpace=wrap;html=1;fontStyle=1;fillColor=#f8cecc;strokeColor=#b85450;fontSize=30;" vertex="1" parent="p7uoksNzp9pEg4KGuEPH-403">
          <mxGeometry x="142.5" y="90" width="145" height="100" as="geometry" />
        </mxCell>
        <mxCell id="p7uoksNzp9pEg4KGuEPH-406" value="" style="group" vertex="1" connectable="0" parent="p7uoksNzp9pEg4KGuEPH-403">
          <mxGeometry x="-50" y="230" width="530" height="60" as="geometry" />
        </mxCell>
        <mxCell id="p7uoksNzp9pEg4KGuEPH-407" value="0" style="rounded=0;whiteSpace=wrap;html=1;fontStyle=0;verticalAlign=top;" vertex="1" parent="p7uoksNzp9pEg4KGuEPH-406">
          <mxGeometry width="27.196495619524406" height="60" as="geometry" />
        </mxCell>
        <mxCell id="p7uoksNzp9pEg4KGuEPH-408" value="1" style="rounded=0;whiteSpace=wrap;html=1;fontStyle=0;verticalAlign=top;" vertex="1" parent="p7uoksNzp9pEg4KGuEPH-406">
          <mxGeometry x="27.196495619524406" width="27.196495619524406" height="60" as="geometry" />
        </mxCell>
        <mxCell id="p7uoksNzp9pEg4KGuEPH-409" value="2" style="rounded=0;whiteSpace=wrap;html=1;verticalAlign=top;" vertex="1" parent="p7uoksNzp9pEg4KGuEPH-406">
          <mxGeometry x="54.39299123904881" width="27.196495619524406" height="60" as="geometry" />
        </mxCell>
        <mxCell id="p7uoksNzp9pEg4KGuEPH-410" value="3" style="rounded=0;whiteSpace=wrap;html=1;verticalAlign=top;" vertex="1" parent="p7uoksNzp9pEg4KGuEPH-406">
          <mxGeometry x="81.5894868585732" width="27.196495619524406" height="60" as="geometry" />
        </mxCell>
        <mxCell id="p7uoksNzp9pEg4KGuEPH-411" value="4" style="rounded=0;whiteSpace=wrap;html=1;verticalAlign=top;" vertex="1" parent="p7uoksNzp9pEg4KGuEPH-406">
          <mxGeometry x="108.78598247809762" width="27.196495619524406" height="60" as="geometry" />
        </mxCell>
        <mxCell id="p7uoksNzp9pEg4KGuEPH-412" value="5" style="rounded=0;whiteSpace=wrap;html=1;verticalAlign=top;" vertex="1" parent="p7uoksNzp9pEg4KGuEPH-406">
          <mxGeometry x="135.98247809762202" width="27.196495619524406" height="60" as="geometry" />
        </mxCell>
        <mxCell id="p7uoksNzp9pEg4KGuEPH-413" value="7" style="rounded=0;whiteSpace=wrap;html=1;verticalAlign=top;" vertex="1" parent="p7uoksNzp9pEg4KGuEPH-406">
          <mxGeometry x="190.37546933667088" width="27.196495619524406" height="60" as="geometry" />
        </mxCell>
        <mxCell id="p7uoksNzp9pEg4KGuEPH-414" value="6" style="rounded=0;whiteSpace=wrap;html=1;verticalAlign=top;" vertex="1" parent="p7uoksNzp9pEg4KGuEPH-406">
          <mxGeometry x="163.1789737171464" width="27.196495619524406" height="60" as="geometry" />
        </mxCell>
        <mxCell id="p7uoksNzp9pEg4KGuEPH-415" value="8" style="rounded=0;whiteSpace=wrap;html=1;verticalAlign=top;" vertex="1" parent="p7uoksNzp9pEg4KGuEPH-406">
          <mxGeometry x="217.57196495619525" width="27.196495619524406" height="60" as="geometry" />
        </mxCell>
        <mxCell id="p7uoksNzp9pEg4KGuEPH-416" value="9" style="rounded=0;whiteSpace=wrap;html=1;verticalAlign=top;" vertex="1" parent="p7uoksNzp9pEg4KGuEPH-406">
          <mxGeometry x="244.76846057571962" width="27.196495619524406" height="60" as="geometry" />
        </mxCell>
        <mxCell id="p7uoksNzp9pEg4KGuEPH-417" value="A" style="rounded=0;whiteSpace=wrap;html=1;verticalAlign=top;" vertex="1" parent="p7uoksNzp9pEg4KGuEPH-406">
          <mxGeometry x="271.96495619524404" width="27.196495619524406" height="60" as="geometry" />
        </mxCell>
        <mxCell id="p7uoksNzp9pEg4KGuEPH-418" value="B" style="rounded=0;whiteSpace=wrap;html=1;verticalAlign=top;" vertex="1" parent="p7uoksNzp9pEg4KGuEPH-406">
          <mxGeometry x="299.16145181476844" width="27.196495619524406" height="60" as="geometry" />
        </mxCell>
        <mxCell id="p7uoksNzp9pEg4KGuEPH-419" value="C" style="rounded=0;whiteSpace=wrap;html=1;verticalAlign=top;" vertex="1" parent="p7uoksNzp9pEg4KGuEPH-406">
          <mxGeometry x="326.3579474342928" width="27.196495619524406" height="60" as="geometry" />
        </mxCell>
        <mxCell id="p7uoksNzp9pEg4KGuEPH-420" value="D" style="rounded=0;whiteSpace=wrap;html=1;verticalAlign=top;" vertex="1" parent="p7uoksNzp9pEg4KGuEPH-406">
          <mxGeometry x="353.55444305381707" width="27.196495619524406" height="60" as="geometry" />
        </mxCell>
        <mxCell id="p7uoksNzp9pEg4KGuEPH-421" value="E" style="rounded=0;whiteSpace=wrap;html=1;verticalAlign=top;" vertex="1" parent="p7uoksNzp9pEg4KGuEPH-406">
          <mxGeometry x="380.75093867334175" width="27.196495619524406" height="60" as="geometry" />
        </mxCell>
        <mxCell id="p7uoksNzp9pEg4KGuEPH-422" value="F" style="rounded=0;whiteSpace=wrap;html=1;verticalAlign=top;" vertex="1" parent="p7uoksNzp9pEg4KGuEPH-406">
          <mxGeometry x="407.94743429286603" width="27.196495619524406" height="60" as="geometry" />
        </mxCell>
        <mxCell id="p7uoksNzp9pEg4KGuEPH-423" value="&lt;b style=&quot;font-size: 25px;&quot;&gt;&lt;font style=&quot;font-size: 25px;&quot;&gt;cat&lt;/font&gt;&lt;/b&gt;" style="rounded=0;whiteSpace=wrap;html=1;fillColor=#dae8fc;strokeColor=#6c8ebf;verticalAlign=middle;align=center;fontSize=25;" vertex="1" parent="p7uoksNzp9pEg4KGuEPH-406">
          <mxGeometry x="435.14127659574467" width="94.85872340425533" height="60" as="geometry" />
        </mxCell>
        <mxCell id="p7uoksNzp9pEg4KGuEPH-424" style="edgeStyle=orthogonalEdgeStyle;rounded=0;orthogonalLoop=1;jettySize=auto;html=1;exitX=0.5;exitY=1;exitDx=0;exitDy=0;strokeWidth=3;" edge="1" parent="1" source="p7uoksNzp9pEg4KGuEPH-371" target="p7uoksNzp9pEg4KGuEPH-383">
          <mxGeometry relative="1" as="geometry" />
        </mxCell>
        <mxCell id="p7uoksNzp9pEg4KGuEPH-432" value="&lt;font style=&quot;font-size: 60px;&quot;&gt;8&lt;/font&gt;" style="edgeLabel;html=1;align=center;verticalAlign=middle;resizable=0;points=[];fontSize=60;fontStyle=1" vertex="1" connectable="0" parent="p7uoksNzp9pEg4KGuEPH-424">
          <mxGeometry x="0.6219" y="1" relative="1" as="geometry">
            <mxPoint y="1" as="offset" />
          </mxGeometry>
        </mxCell>
        <mxCell id="p7uoksNzp9pEg4KGuEPH-425" style="edgeStyle=orthogonalEdgeStyle;rounded=0;orthogonalLoop=1;jettySize=auto;html=1;exitX=0.5;exitY=1;exitDx=0;exitDy=0;entryX=0.5;entryY=0;entryDx=0;entryDy=0;strokeWidth=3;" edge="1" parent="1" source="p7uoksNzp9pEg4KGuEPH-377" target="p7uoksNzp9pEg4KGuEPH-404">
          <mxGeometry relative="1" as="geometry" />
        </mxCell>
        <mxCell id="p7uoksNzp9pEg4KGuEPH-433" value="&lt;font style=&quot;font-size: 60px;&quot;&gt;E&lt;/font&gt;" style="edgeLabel;html=1;align=center;verticalAlign=middle;resizable=0;points=[];fontSize=60;fontStyle=1" vertex="1" connectable="0" parent="p7uoksNzp9pEg4KGuEPH-425">
          <mxGeometry x="0.1842" y="1" relative="1" as="geometry">
            <mxPoint x="-1" as="offset" />
          </mxGeometry>
        </mxCell>
        <mxCell id="p7uoksNzp9pEg4KGuEPH-435" style="edgeStyle=orthogonalEdgeStyle;rounded=0;orthogonalLoop=1;jettySize=auto;html=1;exitX=0.25;exitY=1;exitDx=0;exitDy=0;entryX=0.5;entryY=0;entryDx=0;entryDy=0;strokeWidth=3;" edge="1" parent="1" source="p7uoksNzp9pEg4KGuEPH-9" target="p7uoksNzp9pEg4KGuEPH-178">
          <mxGeometry relative="1" as="geometry" />
        </mxCell>
        <mxCell id="p7uoksNzp9pEg4KGuEPH-436" value="&lt;font style=&quot;font-size: 60px;&quot;&gt;5&lt;/font&gt;" style="edgeLabel;html=1;align=center;verticalAlign=middle;resizable=0;points=[];fontSize=60;fontStyle=1" vertex="1" connectable="0" parent="p7uoksNzp9pEg4KGuEPH-435">
          <mxGeometry x="0.2476" y="3" relative="1" as="geometry">
            <mxPoint as="offset" />
          </mxGeometry>
        </mxCell>
      </root>
    </mxGraphModel>
  </diagram>
</mxfile>
